# MagicaVoxel @ Ephtracy

# group
g Bougie

# material
mtllib Bougie.mtl
usemtl palette

# normals
vn -1 0 0
vn 1 0 0
vn 0 0 1
vn 0 0 -1
vn 0 -1 0
vn 0 1 0

# texcoords
vt 0.755859 0.5
vt 0.759766 0.5
vt 0.833984 0.5

# verts
v -4 0 2
v -4 0 -1
v -4 1 1
v -4 1 -0
v -4 6 2
v -4 6 1
v -4 6 -0
v -4 6 -1
v -3 0 3
v -3 0 2
v -3 0 -1
v -3 0 -2
v -3 1 3
v -3 1 2
v -3 1 -1
v -3 1 -2
v -3 6 3
v -3 6 2
v -3 6 -1
v -3 6 -2
v -2 0 4
v -2 0 3
v -2 0 -2
v -2 0 -3
v -2 1 3
v -2 1 -2
v -2 6 4
v -2 6 3
v -2 6 -2
v -2 6 -3
v -1 5 1
v -1 5 -0
v -1 6 1
v -1 6 -0
v 1 5 3
v 1 5 2
v 1 5 -1
v 1 5 -2
v 1 6 3
v 1 6 2
v 1 6 -1
v 1 6 -2
v 2 5 2
v 2 5 1
v 2 5 -0
v 2 5 -1
v 2 6 2
v 2 6 1
v 2 6 -0
v 2 6 -1
v -3 5 2
v -3 5 1
v -3 5 -0
v -3 5 -1
v -3 6 2
v -3 6 1
v -3 6 -0
v -3 6 -1
v -2 5 3
v -2 5 2
v -2 5 -1
v -2 5 -2
v -2 6 3
v -2 6 2
v -2 6 -1
v -2 6 -2
v 0 5 1
v 0 5 -0
v 0 6 1
v 0 6 -0
v 1 0 4
v 1 0 3
v 1 0 -2
v 1 0 -3
v 1 1 3
v 1 1 -2
v 1 6 4
v 1 6 3
v 1 6 -2
v 1 6 -3
v 2 0 3
v 2 0 2
v 2 0 -1
v 2 0 -2
v 2 1 3
v 2 1 2
v 2 1 -1
v 2 1 -2
v 2 6 3
v 2 6 2
v 2 6 -1
v 2 6 -2
v 3 0 2
v 3 0 -1
v 3 1 1
v 3 1 -0
v 3 6 2
v 3 6 1
v 3 6 -0
v 3 6 -1
v -2 0 4
v -2 6 4
v -1 1 4
v -1 6 4
v 0 1 4
v 0 6 4
v 1 0 4
v 1 6 4
v -3 0 3
v -3 1 3
v -3 6 3
v -2 0 3
v -2 1 3
v -2 6 3
v 1 0 3
v 1 1 3
v 1 6 3
v 2 0 3
v 2 1 3
v 2 6 3
v -4 0 2
v -4 6 2
v -3 0 2
v -3 1 2
v -3 6 2
v 2 0 2
v 2 1 2
v 2 6 2
v 3 0 2
v 3 6 2
v -1 5 1
v -1 6 1
v 0 5 1
v 0 6 1
v -3 5 -1
v -3 6 -1
v -2 5 -1
v -2 6 -1
v 1 5 -1
v 1 6 -1
v 2 5 -1
v 2 6 -1
v -2 5 -2
v -2 6 -2
v -1 5 -2
v -1 6 -2
v 0 5 -2
v 0 6 -2
v 1 5 -2
v 1 6 -2
v -2 5 3
v -2 6 3
v -1 5 3
v -1 6 3
v 0 5 3
v 0 6 3
v 1 5 3
v 1 6 3
v -3 5 2
v -3 6 2
v -2 5 2
v -2 6 2
v 1 5 2
v 1 6 2
v 2 5 2
v 2 6 2
v -1 5 -0
v -1 6 -0
v 0 5 -0
v 0 6 -0
v -4 0 -1
v -4 6 -1
v -3 0 -1
v -3 1 -1
v -3 6 -1
v 2 0 -1
v 2 1 -1
v 2 6 -1
v 3 0 -1
v 3 6 -1
v -3 0 -2
v -3 1 -2
v -3 6 -2
v -2 0 -2
v -2 1 -2
v -2 6 -2
v 1 0 -2
v 1 1 -2
v 1 6 -2
v 2 0 -2
v 2 1 -2
v 2 6 -2
v -2 0 -3
v -2 6 -3
v -1 1 -3
v -1 6 -3
v 0 1 -3
v 0 6 -3
v 1 0 -3
v 1 6 -3
v -2 0 4
v 1 0 4
v -3 0 3
v -2 0 3
v 1 0 3
v 2 0 3
v -4 0 2
v -3 0 2
v 2 0 2
v 3 0 2
v -4 0 -1
v -3 0 -1
v 2 0 -1
v 3 0 -1
v -3 0 -2
v -2 0 -2
v 1 0 -2
v 2 0 -2
v -2 0 -3
v 1 0 -3
v -2 5 3
v -1 5 3
v 0 5 3
v 1 5 3
v -3 5 2
v -2 5 2
v 1 5 2
v 2 5 2
v -3 5 1
v -1 5 1
v 0 5 1
v 2 5 1
v -3 5 -0
v -1 5 -0
v 0 5 -0
v 2 5 -0
v -3 5 -1
v -2 5 -1
v 1 5 -1
v 2 5 -1
v -2 5 -2
v -1 5 -2
v 0 5 -2
v 1 5 -2
v -2 6 4
v -1 6 4
v 0 6 4
v 1 6 4
v -3 6 3
v -2 6 3
v -1 6 3
v 0 6 3
v 1 6 3
v 2 6 3
v -4 6 2
v -3 6 2
v -2 6 2
v 1 6 2
v 2 6 2
v 3 6 2
v -4 6 1
v -3 6 1
v -1 6 1
v 0 6 1
v 2 6 1
v 3 6 1
v -4 6 -0
v -3 6 -0
v -1 6 -0
v 0 6 -0
v 2 6 -0
v 3 6 -0
v -4 6 -1
v -3 6 -1
v -2 6 -1
v 1 6 -1
v 2 6 -1
v 3 6 -1
v -3 6 -2
v -2 6 -2
v -1 6 -2
v 0 6 -2
v 1 6 -2
v 2 6 -2
v -2 6 -3
v -1 6 -3
v 0 6 -3
v 1 6 -3

# faces
f 3/1/1 2/1/1 1/1/1
f 4/1/1 2/1/1 3/1/1
f 5/1/1 3/1/1 1/1/1
f 6/2/1 4/2/1 3/2/1
f 6/1/1 3/1/1 5/1/1
f 7/1/1 2/1/1 4/1/1
f 7/2/1 4/2/1 6/2/1
f 8/1/1 2/1/1 7/1/1
f 13/1/1 10/1/1 9/1/1
f 14/1/1 10/1/1 13/1/1
f 15/1/1 12/1/1 11/1/1
f 16/1/1 12/1/1 15/1/1
f 17/2/1 14/2/1 13/2/1
f 18/2/1 14/2/1 17/2/1
f 19/2/1 16/2/1 15/2/1
f 20/2/1 16/2/1 19/2/1
f 25/1/1 22/1/1 21/1/1
f 26/1/1 24/1/1 23/1/1
f 27/1/1 25/1/1 21/1/1
f 28/1/1 25/1/1 27/1/1
f 29/1/1 24/1/1 26/1/1
f 30/1/1 24/1/1 29/1/1
f 33/3/1 32/3/1 31/3/1
f 34/3/1 32/3/1 33/3/1
f 39/2/1 36/2/1 35/2/1
f 40/2/1 36/2/1 39/2/1
f 41/2/1 38/2/1 37/2/1
f 42/2/1 38/2/1 41/2/1
f 47/1/1 44/1/1 43/1/1
f 48/2/1 45/2/1 44/2/1
f 48/1/1 44/1/1 47/1/1
f 49/1/1 46/1/1 45/1/1
f 49/2/1 45/2/1 48/2/1
f 50/1/1 46/1/1 49/1/1
f 51/1/2 52/1/2 55/1/2
f 52/2/2 53/2/2 56/2/2
f 55/1/2 52/1/2 56/1/2
f 53/1/2 54/1/2 57/1/2
f 56/2/2 53/2/2 57/2/2
f 57/1/2 54/1/2 58/1/2
f 59/2/2 60/2/2 63/2/2
f 63/2/2 60/2/2 64/2/2
f 61/2/2 62/2/2 65/2/2
f 65/2/2 62/2/2 66/2/2
f 67/3/2 68/3/2 69/3/2
f 69/3/2 68/3/2 70/3/2
f 71/1/2 72/1/2 75/1/2
f 73/1/2 74/1/2 76/1/2
f 71/1/2 75/1/2 77/1/2
f 77/1/2 75/1/2 78/1/2
f 76/1/2 74/1/2 79/1/2
f 79/1/2 74/1/2 80/1/2
f 81/1/2 82/1/2 85/1/2
f 85/1/2 82/1/2 86/1/2
f 83/1/2 84/1/2 87/1/2
f 87/1/2 84/1/2 88/1/2
f 85/2/2 86/2/2 89/2/2
f 89/2/2 86/2/2 90/2/2
f 87/2/2 88/2/2 91/2/2
f 91/2/2 88/2/2 92/2/2
f 93/1/2 94/1/2 95/1/2
f 95/1/2 94/1/2 96/1/2
f 93/1/2 95/1/2 97/1/2
f 95/2/2 96/2/2 98/2/2
f 97/1/2 95/1/2 98/1/2
f 96/1/2 94/1/2 99/1/2
f 98/2/2 96/2/2 99/2/2
f 99/1/2 94/1/2 100/1/2
f 103/1/3 102/1/3 101/1/3
f 104/1/3 102/1/3 103/1/3
f 105/1/3 103/1/3 101/1/3
f 105/2/3 104/2/3 103/2/3
f 106/2/3 104/2/3 105/2/3
f 107/1/3 105/1/3 101/1/3
f 107/1/3 106/1/3 105/1/3
f 108/1/3 106/1/3 107/1/3
f 112/1/3 110/1/3 109/1/3
f 113/2/3 111/2/3 110/2/3
f 113/1/3 110/1/3 112/1/3
f 114/2/3 111/2/3 113/2/3
f 118/1/3 116/1/3 115/1/3
f 119/2/3 117/2/3 116/2/3
f 119/1/3 116/1/3 118/1/3
f 120/2/3 117/2/3 119/2/3
f 123/1/3 122/1/3 121/1/3
f 124/1/3 122/1/3 123/1/3
f 125/1/3 122/1/3 124/1/3
f 129/1/3 127/1/3 126/1/3
f 129/1/3 128/1/3 127/1/3
f 130/1/3 128/1/3 129/1/3
f 133/3/3 132/3/3 131/3/3
f 134/3/3 132/3/3 133/3/3
f 137/2/3 136/2/3 135/2/3
f 138/2/3 136/2/3 137/2/3
f 141/2/3 140/2/3 139/2/3
f 142/2/3 140/2/3 141/2/3
f 145/1/3 144/1/3 143/1/3
f 146/1/3 144/1/3 145/1/3
f 147/2/3 146/2/3 145/2/3
f 148/2/3 146/2/3 147/2/3
f 149/1/3 148/1/3 147/1/3
f 150/1/3 148/1/3 149/1/3
f 151/1/4 152/1/4 153/1/4
f 153/1/4 152/1/4 154/1/4
f 153/2/4 154/2/4 155/2/4
f 155/2/4 154/2/4 156/2/4
f 155/1/4 156/1/4 157/1/4
f 157/1/4 156/1/4 158/1/4
f 159/2/4 160/2/4 161/2/4
f 161/2/4 160/2/4 162/2/4
f 163/2/4 164/2/4 165/2/4
f 165/2/4 164/2/4 166/2/4
f 167/3/4 168/3/4 169/3/4
f 169/3/4 168/3/4 170/3/4
f 171/1/4 172/1/4 173/1/4
f 173/1/4 172/1/4 174/1/4
f 174/1/4 172/1/4 175/1/4
f 176/1/4 177/1/4 179/1/4
f 177/1/4 178/1/4 179/1/4
f 179/1/4 178/1/4 180/1/4
f 181/1/4 182/1/4 184/1/4
f 182/2/4 183/2/4 185/2/4
f 184/1/4 182/1/4 185/1/4
f 185/2/4 183/2/4 186/2/4
f 187/1/4 188/1/4 190/1/4
f 188/2/4 189/2/4 191/2/4
f 190/1/4 188/1/4 191/1/4
f 191/2/4 189/2/4 192/2/4
f 193/1/4 194/1/4 195/1/4
f 195/1/4 194/1/4 196/1/4
f 193/1/4 195/1/4 197/1/4
f 195/2/4 196/2/4 197/2/4
f 197/2/4 196/2/4 198/2/4
f 193/1/4 197/1/4 199/1/4
f 197/1/4 198/1/4 199/1/4
f 199/1/4 198/1/4 200/1/4
f 204/1/5 202/1/5 201/1/5
f 205/1/5 202/1/5 204/1/5
f 208/1/5 204/1/5 203/1/5
f 208/1/5 206/1/5 205/1/5
f 208/1/5 205/1/5 204/1/5
f 209/1/5 206/1/5 208/1/5
f 211/1/5 208/1/5 207/1/5
f 211/1/5 210/1/5 209/1/5
f 211/1/5 209/1/5 208/1/5
f 212/1/5 210/1/5 211/1/5
f 213/1/5 210/1/5 212/1/5
f 214/1/5 210/1/5 213/1/5
f 215/1/5 213/1/5 212/1/5
f 216/1/5 213/1/5 215/1/5
f 217/1/5 213/1/5 216/1/5
f 218/1/5 213/1/5 217/1/5
f 219/1/5 217/1/5 216/1/5
f 220/1/5 217/1/5 219/1/5
f 221/3/6 222/3/6 226/3/6
f 223/3/6 224/3/6 226/3/6
f 222/3/6 223/3/6 226/3/6
f 226/3/6 224/3/6 227/3/6
f 225/3/6 226/3/6 229/3/6
f 227/3/6 228/3/6 229/3/6
f 226/3/6 227/3/6 229/3/6
f 229/3/6 228/3/6 230/3/6
f 230/3/6 228/3/6 231/3/6
f 231/3/6 228/3/6 232/3/6
f 229/3/6 230/3/6 233/3/6
f 233/3/6 230/3/6 234/3/6
f 231/3/6 232/3/6 235/3/6
f 235/3/6 232/3/6 236/3/6
f 233/3/6 234/3/6 237/3/6
f 234/3/6 235/3/6 237/3/6
f 235/3/6 236/3/6 237/3/6
f 237/3/6 236/3/6 238/3/6
f 238/3/6 236/3/6 239/3/6
f 239/3/6 236/3/6 240/3/6
f 238/3/6 239/3/6 241/3/6
f 241/3/6 239/3/6 242/3/6
f 242/3/6 239/3/6 243/3/6
f 243/3/6 239/3/6 244/3/6
f 245/1/6 246/1/6 250/1/6
f 246/2/6 247/2/6 251/2/6
f 250/1/6 246/1/6 251/1/6
f 247/1/6 248/1/6 252/1/6
f 251/2/6 247/2/6 252/2/6
f 252/1/6 248/1/6 253/1/6
f 249/2/6 250/2/6 256/2/6
f 256/2/6 250/2/6 257/2/6
f 253/2/6 254/2/6 258/2/6
f 258/2/6 254/2/6 259/2/6
f 255/1/6 256/1/6 261/1/6
f 261/1/6 256/1/6 262/1/6
f 259/1/6 260/1/6 265/1/6
f 265/1/6 260/1/6 266/1/6
f 261/2/6 262/2/6 267/2/6
f 267/2/6 262/2/6 268/2/6
f 263/3/6 264/3/6 269/3/6
f 269/3/6 264/3/6 270/3/6
f 265/2/6 266/2/6 271/2/6
f 271/2/6 266/2/6 272/2/6
f 267/1/6 268/1/6 273/1/6
f 273/1/6 268/1/6 274/1/6
f 271/1/6 272/1/6 277/1/6
f 277/1/6 272/1/6 278/1/6
f 274/2/6 275/2/6 279/2/6
f 279/2/6 275/2/6 280/2/6
f 276/2/6 277/2/6 283/2/6
f 283/2/6 277/2/6 284/2/6
f 280/1/6 281/1/6 285/1/6
f 281/2/6 282/2/6 286/2/6
f 285/1/6 281/1/6 286/1/6
f 282/1/6 283/1/6 287/1/6
f 286/2/6 282/2/6 287/2/6
f 287/1/6 283/1/6 288/1/6
