# MagicaVoxel @ Ephtracy

# material
mtllib de6.mtl
usemtl palette

# normals
vn -1 0 0
vn 1 0 0
vn 0 0 1
vn 0 0 -1
vn 0 -1 0
vn 0 1 0

# texcoords
vt 0.728516 0.5
vt 0.755859 0.5

# verts
v -63 0 63
v -63 0 -63
v -63 1 63
v -63 1 -61
v -63 1 -63
v -63 7 -61
v -63 7 -62
v -63 8 -62
v -63 8 -63
v 63 0 63
v 63 0 -63
v 63 1 63
v 63 1 -61
v 63 1 -63
v 63 7 -61
v 63 7 -62
v 63 8 -62
v 63 8 -63
v -63 0 63
v -63 1 63
v 63 0 63
v 63 1 63
v -63 1 -61
v -63 7 -61
v 63 1 -61
v 63 7 -61
v -63 7 -62
v -63 8 -62
v 63 7 -62
v 63 8 -62
v -63 0 -63
v -63 1 -63
v -63 8 -63
v 63 0 -63
v 63 1 -63
v 63 8 -63
v -63 0 63
v 63 0 63
v -63 0 -63
v 63 0 -63
v -63 1 63
v 63 1 63
v -63 1 -61
v 63 1 -61
v -63 7 -61
v 63 7 -61
v -63 7 -62
v 63 7 -62
v -63 8 -62
v 63 8 -62
v -63 8 -63
v 63 8 -63

# faces
f 3/1/1 2/1/1 1/1/1
f 4/1/1 2/1/1 3/1/1
f 5/1/1 2/1/1 4/1/1
f 6/2/1 5/2/1 4/2/1
f 7/2/1 5/2/1 6/2/1
f 8/2/1 5/2/1 7/2/1
f 9/2/1 5/2/1 8/2/1
f 10/1/2 11/1/2 12/1/2
f 12/1/2 11/1/2 13/1/2
f 13/1/2 11/1/2 14/1/2
f 13/2/2 14/2/2 15/2/2
f 15/2/2 14/2/2 16/2/2
f 16/2/2 14/2/2 17/2/2
f 17/2/2 14/2/2 18/2/2
f 21/1/3 20/1/3 19/1/3
f 22/1/3 20/1/3 21/1/3
f 25/2/3 24/2/3 23/2/3
f 26/2/3 24/2/3 25/2/3
f 29/2/3 28/2/3 27/2/3
f 30/2/3 28/2/3 29/2/3
f 31/1/4 32/1/4 34/1/4
f 32/2/4 33/2/4 35/2/4
f 34/1/4 32/1/4 35/1/4
f 35/2/4 33/2/4 36/2/4
f 39/1/5 38/1/5 37/1/5
f 40/1/5 38/1/5 39/1/5
f 41/1/6 42/1/6 43/1/6
f 43/1/6 42/1/6 44/1/6
f 45/2/6 46/2/6 47/2/6
f 47/2/6 46/2/6 48/2/6
f 49/2/6 50/2/6 51/2/6
f 51/2/6 50/2/6 52/2/6
