# MagicaVoxel @ Ephtracy

# group
g Bibliotheque vide

# material
mtllib Bibliotheque vide.mtl
usemtl palette

# normals
vn -1 0 0
vn 1 0 0
vn 0 0 1
vn 0 0 -1
vn 0 -1 0
vn 0 1 0

# texcoords
vt 0.845703 0.5

# verts
v -25 0 8
v -25 0 -7
v -25 86 8
v -25 86 -7
v 20 7 8
v 20 7 6
v 20 12 8
v 20 12 6
v 20 16 8
v 20 16 -0
v 20 26 8
v 20 26 -0
v 20 30 8
v 20 30 -0
v 20 40 8
v 20 40 -0
v 20 44 8
v 20 44 -1
v 20 54 8
v 20 54 -1
v 20 58 8
v 20 58 -2
v 20 68 8
v 20 68 -2
v 20 72 8
v 20 72 -0
v 20 82 8
v 20 82 -0
v -21 7 8
v -21 7 6
v -21 12 8
v -21 12 6
v -21 16 8
v -21 16 -0
v -21 26 8
v -21 26 -0
v -21 30 8
v -21 30 -0
v -21 40 8
v -21 40 -0
v -21 44 8
v -21 44 -1
v -21 54 8
v -21 54 -1
v -21 58 8
v -21 58 -2
v -21 68 8
v -21 68 -2
v -21 72 8
v -21 72 -0
v -21 82 8
v -21 82 -0
v 24 0 8
v 24 0 -7
v 24 86 8
v 24 86 -7
v -25 0 8
v -25 86 8
v -21 7 8
v -21 12 8
v -21 16 8
v -21 26 8
v -21 30 8
v -21 40 8
v -21 44 8
v -21 54 8
v -21 58 8
v -21 68 8
v -21 72 8
v -21 82 8
v 20 7 8
v 20 12 8
v 20 16 8
v 20 26 8
v 20 30 8
v 20 40 8
v 20 44 8
v 20 54 8
v 20 58 8
v 20 68 8
v 20 72 8
v 20 82 8
v 24 0 8
v 24 86 8
v -21 7 6
v -21 12 6
v 20 7 6
v 20 12 6
v -21 16 -0
v -21 26 -0
v -21 30 -0
v -21 40 -0
v -21 72 -0
v -21 82 -0
v 20 16 -0
v 20 26 -0
v 20 30 -0
v 20 40 -0
v 20 72 -0
v 20 82 -0
v -21 44 -1
v -21 54 -1
v 20 44 -1
v 20 54 -1
v -21 58 -2
v -21 68 -2
v 20 58 -2
v 20 68 -2
v -25 0 -7
v -25 86 -7
v 24 0 -7
v 24 86 -7
v -25 0 8
v 24 0 8
v -25 0 -7
v 24 0 -7
v -21 12 8
v 20 12 8
v -21 12 6
v 20 12 6
v -21 26 8
v 20 26 8
v -21 26 -0
v 20 26 -0
v -21 40 8
v 20 40 8
v -21 40 -0
v 20 40 -0
v -21 54 8
v 20 54 8
v -21 54 -1
v 20 54 -1
v -21 68 8
v 20 68 8
v -21 68 -2
v 20 68 -2
v -21 82 8
v 20 82 8
v -21 82 -0
v 20 82 -0
v -21 7 8
v 20 7 8
v -21 7 6
v 20 7 6
v -21 16 8
v 20 16 8
v -21 16 -0
v 20 16 -0
v -21 30 8
v 20 30 8
v -21 30 -0
v 20 30 -0
v -21 44 8
v 20 44 8
v -21 44 -1
v 20 44 -1
v -21 58 8
v 20 58 8
v -21 58 -2
v 20 58 -2
v -21 72 8
v 20 72 8
v -21 72 -0
v 20 72 -0
v -25 86 8
v 24 86 8
v -25 86 -7
v 24 86 -7

# faces
f 3/1/1 2/1/1 1/1/1
f 4/1/1 2/1/1 3/1/1
f 7/1/1 6/1/1 5/1/1
f 8/1/1 6/1/1 7/1/1
f 11/1/1 10/1/1 9/1/1
f 12/1/1 10/1/1 11/1/1
f 15/1/1 14/1/1 13/1/1
f 16/1/1 14/1/1 15/1/1
f 19/1/1 18/1/1 17/1/1
f 20/1/1 18/1/1 19/1/1
f 23/1/1 22/1/1 21/1/1
f 24/1/1 22/1/1 23/1/1
f 27/1/1 26/1/1 25/1/1
f 28/1/1 26/1/1 27/1/1
f 29/1/2 30/1/2 31/1/2
f 31/1/2 30/1/2 32/1/2
f 33/1/2 34/1/2 35/1/2
f 35/1/2 34/1/2 36/1/2
f 37/1/2 38/1/2 39/1/2
f 39/1/2 38/1/2 40/1/2
f 41/1/2 42/1/2 43/1/2
f 43/1/2 42/1/2 44/1/2
f 45/1/2 46/1/2 47/1/2
f 47/1/2 46/1/2 48/1/2
f 49/1/2 50/1/2 51/1/2
f 51/1/2 50/1/2 52/1/2
f 53/1/2 54/1/2 55/1/2
f 55/1/2 54/1/2 56/1/2
f 59/1/3 58/1/3 57/1/3
f 60/1/3 58/1/3 59/1/3
f 61/1/3 58/1/3 60/1/3
f 62/1/3 58/1/3 61/1/3
f 63/1/3 58/1/3 62/1/3
f 64/1/3 58/1/3 63/1/3
f 65/1/3 58/1/3 64/1/3
f 66/1/3 58/1/3 65/1/3
f 67/1/3 58/1/3 66/1/3
f 68/1/3 58/1/3 67/1/3
f 69/1/3 58/1/3 68/1/3
f 70/1/3 58/1/3 69/1/3
f 71/1/3 59/1/3 57/1/3
f 72/1/3 61/1/3 60/1/3
f 73/1/3 61/1/3 72/1/3
f 74/1/3 63/1/3 62/1/3
f 75/1/3 63/1/3 74/1/3
f 76/1/3 65/1/3 64/1/3
f 77/1/3 65/1/3 76/1/3
f 78/1/3 67/1/3 66/1/3
f 79/1/3 67/1/3 78/1/3
f 80/1/3 69/1/3 68/1/3
f 81/1/3 69/1/3 80/1/3
f 82/1/3 58/1/3 70/1/3
f 83/1/3 81/1/3 80/1/3
f 83/1/3 82/1/3 81/1/3
f 83/1/3 79/1/3 78/1/3
f 83/1/3 71/1/3 57/1/3
f 83/1/3 80/1/3 79/1/3
f 83/1/3 77/1/3 76/1/3
f 83/1/3 78/1/3 77/1/3
f 83/1/3 73/1/3 72/1/3
f 83/1/3 76/1/3 75/1/3
f 83/1/3 75/1/3 74/1/3
f 83/1/3 74/1/3 73/1/3
f 83/1/3 72/1/3 71/1/3
f 84/1/3 58/1/3 82/1/3
f 84/1/3 82/1/3 83/1/3
f 87/1/3 86/1/3 85/1/3
f 88/1/3 86/1/3 87/1/3
f 95/1/3 90/1/3 89/1/3
f 96/1/3 90/1/3 95/1/3
f 97/1/3 92/1/3 91/1/3
f 98/1/3 92/1/3 97/1/3
f 99/1/3 94/1/3 93/1/3
f 100/1/3 94/1/3 99/1/3
f 103/1/3 102/1/3 101/1/3
f 104/1/3 102/1/3 103/1/3
f 107/1/3 106/1/3 105/1/3
f 108/1/3 106/1/3 107/1/3
f 109/1/4 110/1/4 111/1/4
f 111/1/4 110/1/4 112/1/4
f 115/1/5 114/1/5 113/1/5
f 116/1/5 114/1/5 115/1/5
f 119/1/5 118/1/5 117/1/5
f 120/1/5 118/1/5 119/1/5
f 123/1/5 122/1/5 121/1/5
f 124/1/5 122/1/5 123/1/5
f 127/1/5 126/1/5 125/1/5
f 128/1/5 126/1/5 127/1/5
f 131/1/5 130/1/5 129/1/5
f 132/1/5 130/1/5 131/1/5
f 135/1/5 134/1/5 133/1/5
f 136/1/5 134/1/5 135/1/5
f 139/1/5 138/1/5 137/1/5
f 140/1/5 138/1/5 139/1/5
f 141/1/6 142/1/6 143/1/6
f 143/1/6 142/1/6 144/1/6
f 145/1/6 146/1/6 147/1/6
f 147/1/6 146/1/6 148/1/6
f 149/1/6 150/1/6 151/1/6
f 151/1/6 150/1/6 152/1/6
f 153/1/6 154/1/6 155/1/6
f 155/1/6 154/1/6 156/1/6
f 157/1/6 158/1/6 159/1/6
f 159/1/6 158/1/6 160/1/6
f 161/1/6 162/1/6 163/1/6
f 163/1/6 162/1/6 164/1/6
f 165/1/6 166/1/6 167/1/6
f 167/1/6 166/1/6 168/1/6
