# MagicaVoxel @ Ephtracy

# material
mtllib d1.mtl
usemtl palette

# normals
vn -1 0 0
vn 1 0 0
vn 0 0 1
vn 0 0 -1
vn 0 -1 0
vn 0 1 0

# texcoords
vt 0.732422 0.5
vt 0.755859 0.5
vt 0.787109 0.5

# verts
v -63 0 63
v -63 0 47
v -63 0 43
v -63 0 38
v -63 0 -38
v -63 0 -43
v -63 0 -47
v -63 0 -63
v -63 2 39
v -63 2 38
v -63 10 38
v -63 10 37
v -63 16 -38
v -63 16 -39
v -63 22 -37
v -63 22 -38
v -63 70 63
v -63 70 47
v -63 70 43
v -63 70 39
v -63 70 38
v -63 70 37
v -63 70 -37
v -63 70 -38
v -63 70 -39
v -63 70 -43
v -63 70 -47
v -63 70 -62
v -63 126 -62
v -63 126 -63
v -43 70 63
v -43 70 47
v -43 70 43
v -43 70 39
v -43 70 38
v -43 70 37
v -43 70 -37
v -43 70 -38
v -43 70 -39
v -43 70 -43
v -43 70 -47
v -43 70 -62
v -43 80 63
v -43 80 47
v -43 80 43
v -43 80 39
v -43 80 38
v -43 80 37
v -43 80 -37
v -43 80 -38
v -43 80 -39
v -43 80 -43
v -43 80 -47
v -43 80 -62
v -23 80 63
v -23 80 47
v -23 80 43
v -23 80 39
v -23 80 38
v -23 80 37
v -23 80 -37
v -23 80 -38
v -23 80 -39
v -23 80 -43
v -23 80 -47
v -23 80 -62
v -23 90 63
v -23 90 47
v -23 90 43
v -23 90 39
v -23 90 38
v -23 90 37
v -23 90 -37
v -23 90 -38
v -23 90 -39
v -23 90 -43
v -23 90 -47
v -23 90 -62
v -3 90 63
v -3 90 47
v -3 90 43
v -3 90 39
v -3 90 38
v -3 90 37
v -3 90 -37
v -3 90 -38
v -3 90 -39
v -3 90 -43
v -3 90 -47
v -3 90 -62
v -3 100 63
v -3 100 47
v -3 100 43
v -3 100 39
v -3 100 38
v -3 100 37
v -3 100 -37
v -3 100 -38
v -3 100 -39
v -3 100 -43
v -3 100 -47
v -3 100 -62
v 17 100 63
v 17 100 47
v 17 100 43
v 17 100 39
v 17 100 38
v 17 100 37
v 17 100 -37
v 17 100 -38
v 17 100 -39
v 17 100 -43
v 17 100 -47
v 17 100 -62
v 17 110 63
v 17 110 47
v 17 110 43
v 17 110 39
v 17 110 38
v 17 110 37
v 17 110 -37
v 17 110 -38
v 17 110 -39
v 17 110 -43
v 17 110 -47
v 17 110 -62
v 37 110 63
v 37 110 47
v 37 110 43
v 37 110 39
v 37 110 38
v 37 110 37
v 37 110 -37
v 37 110 -38
v 37 110 -39
v 37 110 -43
v 37 110 -47
v 37 110 -62
v 37 120 63
v 37 120 47
v 37 120 43
v 37 120 39
v 37 120 38
v 37 120 37
v 37 120 -37
v 37 120 -38
v 37 120 -39
v 37 120 -43
v 37 120 -47
v 37 120 -62
v 57 120 63
v 57 120 47
v 57 120 43
v 57 120 39
v 57 120 38
v 57 120 37
v 57 120 -37
v 57 120 -38
v 57 120 -39
v 57 120 -43
v 57 120 -47
v 57 120 -62
v 57 126 63
v 57 126 47
v 57 126 43
v 57 126 39
v 57 126 38
v 57 126 37
v 57 126 -37
v 57 126 -38
v 57 126 -39
v 57 126 -43
v 57 126 -47
v 57 126 -62
v 63 0 63
v 63 0 47
v 63 0 -47
v 63 0 -63
v 63 10 38
v 63 10 37
v 63 22 -37
v 63 22 -38
v 63 89 43
v 63 89 39
v 63 89 -39
v 63 89 -43
v 63 126 63
v 63 126 47
v 63 126 43
v 63 126 39
v 63 126 38
v 63 126 37
v 63 126 -37
v 63 126 -38
v 63 126 -39
v 63 126 -43
v 63 126 -47
v 63 126 -63
v -63 0 63
v -63 70 63
v -43 70 63
v -43 80 63
v -23 80 63
v -23 90 63
v -3 90 63
v -3 100 63
v 17 100 63
v 17 110 63
v 37 110 63
v 37 120 63
v 57 120 63
v 57 126 63
v 63 0 63
v 63 126 63
v -63 70 -62
v -63 126 -62
v -43 70 -62
v -43 80 -62
v -23 80 -62
v -23 90 -62
v -3 90 -62
v -3 100 -62
v 17 100 -62
v 17 110 -62
v 37 110 -62
v 37 120 -62
v 57 120 -62
v 57 126 -62
v -63 0 -63
v -63 126 -63
v 63 0 -63
v 63 126 -63
v -63 0 63
v 63 0 63
v -63 0 47
v 63 0 47
v -63 0 43
v -6 0 43
v -63 0 38
v -6 0 38
v -63 0 -38
v -6 0 -38
v -63 0 -43
v -6 0 -43
v -63 0 -47
v 63 0 -47
v -63 0 -63
v 63 0 -63
v -63 70 63
v -43 70 63
v -63 70 47
v -43 70 47
v -63 70 43
v -43 70 43
v -63 70 39
v -43 70 39
v -63 70 38
v -43 70 38
v -63 70 37
v -43 70 37
v -63 70 -37
v -43 70 -37
v -63 70 -38
v -43 70 -38
v -63 70 -39
v -43 70 -39
v -63 70 -43
v -43 70 -43
v -63 70 -47
v -43 70 -47
v -63 70 -62
v -43 70 -62
v -43 80 63
v -23 80 63
v -43 80 47
v -23 80 47
v -43 80 43
v -23 80 43
v -43 80 39
v -23 80 39
v -43 80 38
v -23 80 38
v -43 80 37
v -23 80 37
v -43 80 -37
v -23 80 -37
v -43 80 -38
v -23 80 -38
v -43 80 -39
v -23 80 -39
v -43 80 -43
v -23 80 -43
v -43 80 -47
v -23 80 -47
v -43 80 -62
v -23 80 -62
v -23 90 63
v -3 90 63
v -23 90 47
v -3 90 47
v -23 90 43
v -3 90 43
v -23 90 39
v -3 90 39
v -23 90 38
v -3 90 38
v -23 90 37
v -3 90 37
v -23 90 -37
v -3 90 -37
v -23 90 -38
v -3 90 -38
v -23 90 -39
v -3 90 -39
v -23 90 -43
v -3 90 -43
v -23 90 -47
v -3 90 -47
v -23 90 -62
v -3 90 -62
v -3 100 63
v 17 100 63
v -3 100 47
v 17 100 47
v -3 100 43
v 17 100 43
v -3 100 39
v 17 100 39
v -3 100 38
v 17 100 38
v -3 100 37
v 17 100 37
v -3 100 -37
v 17 100 -37
v -3 100 -38
v 17 100 -38
v -3 100 -39
v 17 100 -39
v -3 100 -43
v 17 100 -43
v -3 100 -47
v 17 100 -47
v -3 100 -62
v 17 100 -62
v 17 110 63
v 37 110 63
v 17 110 47
v 37 110 47
v 17 110 43
v 37 110 43
v 17 110 39
v 37 110 39
v 17 110 38
v 37 110 38
v 17 110 37
v 37 110 37
v 17 110 -37
v 37 110 -37
v 17 110 -38
v 37 110 -38
v 17 110 -39
v 37 110 -39
v 17 110 -43
v 37 110 -43
v 17 110 -47
v 37 110 -47
v 17 110 -62
v 37 110 -62
v 37 120 63
v 57 120 63
v 37 120 47
v 57 120 47
v 37 120 43
v 57 120 43
v 37 120 39
v 57 120 39
v 37 120 38
v 57 120 38
v 37 120 37
v 57 120 37
v 37 120 -37
v 57 120 -37
v 37 120 -38
v 57 120 -38
v 37 120 -39
v 57 120 -39
v 37 120 -43
v 57 120 -43
v 37 120 -47
v 57 120 -47
v 37 120 -62
v 57 120 -62
v 57 126 63
v 63 126 63
v 57 126 47
v 63 126 47
v 57 126 43
v 63 126 43
v 57 126 39
v 63 126 39
v 57 126 38
v 63 126 38
v 57 126 37
v 63 126 37
v 57 126 -37
v 63 126 -37
v 57 126 -38
v 63 126 -38
v 57 126 -39
v 63 126 -39
v 57 126 -43
v 63 126 -43
v 57 126 -47
v 63 126 -47
v -63 126 -62
v 57 126 -62
v -63 126 -63
v 63 126 -63

# faces
f 9/1/1 4/1/1 3/1/1
f 10/3/1 5/3/1 4/3/1
f 10/1/1 4/1/1 9/1/1
f 11/3/1 10/3/1 9/3/1
f 11/3/1 5/3/1 10/3/1
f 12/3/1 5/3/1 11/3/1
f 13/1/1 6/1/1 5/1/1
f 13/3/1 5/3/1 12/3/1
f 14/1/1 6/1/1 13/1/1
f 15/3/1 13/3/1 12/3/1
f 15/3/1 14/3/1 13/3/1
f 16/3/1 14/3/1 15/3/1
f 17/2/1 2/2/1 1/2/1
f 18/3/1 3/3/1 2/3/1
f 18/2/1 2/2/1 17/2/1
f 19/1/1 9/1/1 3/1/1
f 19/3/1 3/3/1 18/3/1
f 20/3/1 11/3/1 9/3/1
f 20/1/1 9/1/1 19/1/1
f 21/1/1 12/1/1 11/1/1
f 21/3/1 11/3/1 20/3/1
f 22/3/1 15/3/1 12/3/1
f 22/1/1 12/1/1 21/1/1
f 23/1/1 16/1/1 15/1/1
f 23/3/1 15/3/1 22/3/1
f 24/3/1 14/3/1 16/3/1
f 24/1/1 16/1/1 23/1/1
f 25/1/1 6/1/1 14/1/1
f 25/3/1 14/3/1 24/3/1
f 26/3/1 7/3/1 6/3/1
f 26/1/1 6/1/1 25/1/1
f 27/2/1 8/2/1 7/2/1
f 27/3/1 7/3/1 26/3/1
f 28/2/1 8/2/1 27/2/1
f 29/2/1 8/2/1 28/2/1
f 30/2/1 8/2/1 29/2/1
f 43/2/1 32/2/1 31/2/1
f 44/3/1 33/3/1 32/3/1
f 44/2/1 32/2/1 43/2/1
f 45/1/1 34/1/1 33/1/1
f 45/3/1 33/3/1 44/3/1
f 46/3/1 35/3/1 34/3/1
f 46/1/1 34/1/1 45/1/1
f 47/1/1 36/1/1 35/1/1
f 47/3/1 35/3/1 46/3/1
f 48/3/1 37/3/1 36/3/1
f 48/1/1 36/1/1 47/1/1
f 49/1/1 38/1/1 37/1/1
f 49/3/1 37/3/1 48/3/1
f 50/3/1 39/3/1 38/3/1
f 50/1/1 38/1/1 49/1/1
f 51/1/1 40/1/1 39/1/1
f 51/3/1 39/3/1 50/3/1
f 52/3/1 41/3/1 40/3/1
f 52/1/1 40/1/1 51/1/1
f 53/2/1 42/2/1 41/2/1
f 53/3/1 41/3/1 52/3/1
f 54/2/1 42/2/1 53/2/1
f 67/2/1 56/2/1 55/2/1
f 68/3/1 57/3/1 56/3/1
f 68/2/1 56/2/1 67/2/1
f 69/1/1 58/1/1 57/1/1
f 69/3/1 57/3/1 68/3/1
f 70/3/1 59/3/1 58/3/1
f 70/1/1 58/1/1 69/1/1
f 71/1/1 60/1/1 59/1/1
f 71/3/1 59/3/1 70/3/1
f 72/3/1 61/3/1 60/3/1
f 72/1/1 60/1/1 71/1/1
f 73/1/1 62/1/1 61/1/1
f 73/3/1 61/3/1 72/3/1
f 74/3/1 63/3/1 62/3/1
f 74/1/1 62/1/1 73/1/1
f 75/1/1 64/1/1 63/1/1
f 75/3/1 63/3/1 74/3/1
f 76/3/1 65/3/1 64/3/1
f 76/1/1 64/1/1 75/1/1
f 77/2/1 66/2/1 65/2/1
f 77/3/1 65/3/1 76/3/1
f 78/2/1 66/2/1 77/2/1
f 91/2/1 80/2/1 79/2/1
f 92/3/1 81/3/1 80/3/1
f 92/2/1 80/2/1 91/2/1
f 93/1/1 82/1/1 81/1/1
f 93/3/1 81/3/1 92/3/1
f 94/3/1 83/3/1 82/3/1
f 94/1/1 82/1/1 93/1/1
f 95/1/1 84/1/1 83/1/1
f 95/3/1 83/3/1 94/3/1
f 96/3/1 85/3/1 84/3/1
f 96/1/1 84/1/1 95/1/1
f 97/1/1 86/1/1 85/1/1
f 97/3/1 85/3/1 96/3/1
f 98/3/1 87/3/1 86/3/1
f 98/1/1 86/1/1 97/1/1
f 99/1/1 88/1/1 87/1/1
f 99/3/1 87/3/1 98/3/1
f 100/3/1 89/3/1 88/3/1
f 100/1/1 88/1/1 99/1/1
f 101/2/1 90/2/1 89/2/1
f 101/3/1 89/3/1 100/3/1
f 102/2/1 90/2/1 101/2/1
f 115/2/1 104/2/1 103/2/1
f 116/3/1 105/3/1 104/3/1
f 116/2/1 104/2/1 115/2/1
f 117/1/1 106/1/1 105/1/1
f 117/3/1 105/3/1 116/3/1
f 118/3/1 107/3/1 106/3/1
f 118/1/1 106/1/1 117/1/1
f 119/1/1 108/1/1 107/1/1
f 119/3/1 107/3/1 118/3/1
f 120/3/1 109/3/1 108/3/1
f 120/1/1 108/1/1 119/1/1
f 121/1/1 110/1/1 109/1/1
f 121/3/1 109/3/1 120/3/1
f 122/3/1 111/3/1 110/3/1
f 122/1/1 110/1/1 121/1/1
f 123/1/1 112/1/1 111/1/1
f 123/3/1 111/3/1 122/3/1
f 124/3/1 113/3/1 112/3/1
f 124/1/1 112/1/1 123/1/1
f 125/2/1 114/2/1 113/2/1
f 125/3/1 113/3/1 124/3/1
f 126/2/1 114/2/1 125/2/1
f 139/2/1 128/2/1 127/2/1
f 140/3/1 129/3/1 128/3/1
f 140/2/1 128/2/1 139/2/1
f 141/1/1 130/1/1 129/1/1
f 141/3/1 129/3/1 140/3/1
f 142/3/1 131/3/1 130/3/1
f 142/1/1 130/1/1 141/1/1
f 143/1/1 132/1/1 131/1/1
f 143/3/1 131/3/1 142/3/1
f 144/3/1 133/3/1 132/3/1
f 144/1/1 132/1/1 143/1/1
f 145/1/1 134/1/1 133/1/1
f 145/3/1 133/3/1 144/3/1
f 146/3/1 135/3/1 134/3/1
f 146/1/1 134/1/1 145/1/1
f 147/1/1 136/1/1 135/1/1
f 147/3/1 135/3/1 146/3/1
f 148/3/1 137/3/1 136/3/1
f 148/1/1 136/1/1 147/1/1
f 149/2/1 138/2/1 137/2/1
f 149/3/1 137/3/1 148/3/1
f 150/2/1 138/2/1 149/2/1
f 163/2/1 152/2/1 151/2/1
f 164/3/1 153/3/1 152/3/1
f 164/2/1 152/2/1 163/2/1
f 165/1/1 154/1/1 153/1/1
f 165/3/1 153/3/1 164/3/1
f 166/3/1 155/3/1 154/3/1
f 166/1/1 154/1/1 165/1/1
f 167/1/1 156/1/1 155/1/1
f 167/3/1 155/3/1 166/3/1
f 168/3/1 157/3/1 156/3/1
f 168/1/1 156/1/1 167/1/1
f 169/1/1 158/1/1 157/1/1
f 169/3/1 157/3/1 168/3/1
f 170/3/1 159/3/1 158/3/1
f 170/1/1 158/1/1 169/1/1
f 171/1/1 160/1/1 159/1/1
f 171/3/1 159/3/1 170/3/1
f 172/3/1 161/3/1 160/3/1
f 172/1/1 160/1/1 171/1/1
f 173/2/1 162/2/1 161/2/1
f 173/3/1 161/3/1 172/3/1
f 174/2/1 162/2/1 173/2/1
f 176/3/2 177/3/2 179/3/2
f 179/3/2 177/3/2 180/3/2
f 180/3/2 177/3/2 181/3/2
f 181/3/2 177/3/2 182/3/2
f 176/3/2 179/3/2 183/3/2
f 183/3/2 179/3/2 184/3/2
f 182/3/2 177/3/2 185/3/2
f 185/3/2 177/3/2 186/3/2
f 175/2/2 176/2/2 187/2/2
f 176/3/2 183/3/2 188/3/2
f 187/2/2 176/2/2 188/2/2
f 183/1/2 184/1/2 189/1/2
f 188/3/2 183/3/2 189/3/2
f 184/3/2 179/3/2 190/3/2
f 189/1/2 184/1/2 190/1/2
f 179/1/2 180/1/2 191/1/2
f 190/3/2 179/3/2 191/3/2
f 180/3/2 181/3/2 192/3/2
f 191/1/2 180/1/2 192/1/2
f 181/1/2 182/1/2 193/1/2
f 192/3/2 181/3/2 193/3/2
f 182/3/2 185/3/2 194/3/2
f 193/1/2 182/1/2 194/1/2
f 185/1/2 186/1/2 195/1/2
f 194/3/2 185/3/2 195/3/2
f 186/3/2 177/3/2 196/3/2
f 195/1/2 186/1/2 196/1/2
f 177/2/2 178/2/2 197/2/2
f 196/3/2 177/3/2 197/3/2
f 197/2/2 178/2/2 198/2/2
f 201/2/3 200/2/3 199/2/3
f 203/2/3 202/2/3 201/2/3
f 205/2/3 204/2/3 203/2/3
f 207/2/3 206/2/3 205/2/3
f 209/2/3 208/2/3 207/2/3
f 211/2/3 210/2/3 209/2/3
f 213/2/3 201/2/3 199/2/3
f 213/2/3 212/2/3 211/2/3
f 213/2/3 211/2/3 209/2/3
f 213/2/3 209/2/3 207/2/3
f 213/2/3 207/2/3 205/2/3
f 213/2/3 205/2/3 203/2/3
f 213/2/3 203/2/3 201/2/3
f 214/2/3 212/2/3 213/2/3
f 217/2/3 216/2/3 215/2/3
f 218/2/3 216/2/3 217/2/3
f 219/2/3 216/2/3 218/2/3
f 220/2/3 216/2/3 219/2/3
f 221/2/3 216/2/3 220/2/3
f 222/2/3 216/2/3 221/2/3
f 223/2/3 216/2/3 222/2/3
f 224/2/3 216/2/3 223/2/3
f 225/2/3 216/2/3 224/2/3
f 226/2/3 216/2/3 225/2/3
f 227/2/3 216/2/3 226/2/3
f 228/2/3 216/2/3 227/2/3
f 229/2/4 230/2/4 231/2/4
f 231/2/4 230/2/4 232/2/4
f 235/2/5 234/2/5 233/2/5
f 236/2/5 234/2/5 235/2/5
f 237/3/5 236/3/5 235/3/5
f 238/3/5 236/3/5 237/3/5
f 239/1/5 238/1/5 237/1/5
f 240/3/5 236/3/5 238/3/5
f 240/1/5 238/1/5 239/1/5
f 241/3/5 240/3/5 239/3/5
f 242/3/5 236/3/5 240/3/5
f 242/3/5 240/3/5 241/3/5
f 243/1/5 242/1/5 241/1/5
f 244/3/5 236/3/5 242/3/5
f 244/1/5 242/1/5 243/1/5
f 245/3/5 244/3/5 243/3/5
f 246/3/5 236/3/5 244/3/5
f 246/3/5 244/3/5 245/3/5
f 247/2/5 246/2/5 245/2/5
f 248/2/5 246/2/5 247/2/5
f 249/2/6 250/2/6 251/2/6
f 251/2/6 250/2/6 252/2/6
f 251/3/6 252/3/6 253/3/6
f 253/3/6 252/3/6 254/3/6
f 253/1/6 254/1/6 255/1/6
f 255/1/6 254/1/6 256/1/6
f 255/3/6 256/3/6 257/3/6
f 257/3/6 256/3/6 258/3/6
f 257/1/6 258/1/6 259/1/6
f 259/1/6 258/1/6 260/1/6
f 259/3/6 260/3/6 261/3/6
f 261/3/6 260/3/6 262/3/6
f 261/1/6 262/1/6 263/1/6
f 263/1/6 262/1/6 264/1/6
f 263/3/6 264/3/6 265/3/6
f 265/3/6 264/3/6 266/3/6
f 265/1/6 266/1/6 267/1/6
f 267/1/6 266/1/6 268/1/6
f 267/3/6 268/3/6 269/3/6
f 269/3/6 268/3/6 270/3/6
f 269/2/6 270/2/6 271/2/6
f 271/2/6 270/2/6 272/2/6
f 273/2/6 274/2/6 275/2/6
f 275/2/6 274/2/6 276/2/6
f 275/3/6 276/3/6 277/3/6
f 277/3/6 276/3/6 278/3/6
f 277/1/6 278/1/6 279/1/6
f 279/1/6 278/1/6 280/1/6
f 279/3/6 280/3/6 281/3/6
f 281/3/6 280/3/6 282/3/6
f 281/1/6 282/1/6 283/1/6
f 283/1/6 282/1/6 284/1/6
f 283/3/6 284/3/6 285/3/6
f 285/3/6 284/3/6 286/3/6
f 285/1/6 286/1/6 287/1/6
f 287/1/6 286/1/6 288/1/6
f 287/3/6 288/3/6 289/3/6
f 289/3/6 288/3/6 290/3/6
f 289/1/6 290/1/6 291/1/6
f 291/1/6 290/1/6 292/1/6
f 291/3/6 292/3/6 293/3/6
f 293/3/6 292/3/6 294/3/6
f 293/2/6 294/2/6 295/2/6
f 295/2/6 294/2/6 296/2/6
f 297/2/6 298/2/6 299/2/6
f 299/2/6 298/2/6 300/2/6
f 299/3/6 300/3/6 301/3/6
f 301/3/6 300/3/6 302/3/6
f 301/1/6 302/1/6 303/1/6
f 303/1/6 302/1/6 304/1/6
f 303/3/6 304/3/6 305/3/6
f 305/3/6 304/3/6 306/3/6
f 305/1/6 306/1/6 307/1/6
f 307/1/6 306/1/6 308/1/6
f 307/3/6 308/3/6 309/3/6
f 309/3/6 308/3/6 310/3/6
f 309/1/6 310/1/6 311/1/6
f 311/1/6 310/1/6 312/1/6
f 311/3/6 312/3/6 313/3/6
f 313/3/6 312/3/6 314/3/6
f 313/1/6 314/1/6 315/1/6
f 315/1/6 314/1/6 316/1/6
f 315/3/6 316/3/6 317/3/6
f 317/3/6 316/3/6 318/3/6
f 317/2/6 318/2/6 319/2/6
f 319/2/6 318/2/6 320/2/6
f 321/2/6 322/2/6 323/2/6
f 323/2/6 322/2/6 324/2/6
f 323/3/6 324/3/6 325/3/6
f 325/3/6 324/3/6 326/3/6
f 325/1/6 326/1/6 327/1/6
f 327/1/6 326/1/6 328/1/6
f 327/3/6 328/3/6 329/3/6
f 329/3/6 328/3/6 330/3/6
f 329/1/6 330/1/6 331/1/6
f 331/1/6 330/1/6 332/1/6
f 331/3/6 332/3/6 333/3/6
f 333/3/6 332/3/6 334/3/6
f 333/1/6 334/1/6 335/1/6
f 335/1/6 334/1/6 336/1/6
f 335/3/6 336/3/6 337/3/6
f 337/3/6 336/3/6 338/3/6
f 337/1/6 338/1/6 339/1/6
f 339/1/6 338/1/6 340/1/6
f 339/3/6 340/3/6 341/3/6
f 341/3/6 340/3/6 342/3/6
f 341/2/6 342/2/6 343/2/6
f 343/2/6 342/2/6 344/2/6
f 345/2/6 346/2/6 347/2/6
f 347/2/6 346/2/6 348/2/6
f 347/3/6 348/3/6 349/3/6
f 349/3/6 348/3/6 350/3/6
f 349/1/6 350/1/6 351/1/6
f 351/1/6 350/1/6 352/1/6
f 351/3/6 352/3/6 353/3/6
f 353/3/6 352/3/6 354/3/6
f 353/1/6 354/1/6 355/1/6
f 355/1/6 354/1/6 356/1/6
f 355/3/6 356/3/6 357/3/6
f 357/3/6 356/3/6 358/3/6
f 357/1/6 358/1/6 359/1/6
f 359/1/6 358/1/6 360/1/6
f 359/3/6 360/3/6 361/3/6
f 361/3/6 360/3/6 362/3/6
f 361/1/6 362/1/6 363/1/6
f 363/1/6 362/1/6 364/1/6
f 363/3/6 364/3/6 365/3/6
f 365/3/6 364/3/6 366/3/6
f 365/2/6 366/2/6 367/2/6
f 367/2/6 366/2/6 368/2/6
f 369/2/6 370/2/6 371/2/6
f 371/2/6 370/2/6 372/2/6
f 371/3/6 372/3/6 373/3/6
f 373/3/6 372/3/6 374/3/6
f 373/1/6 374/1/6 375/1/6
f 375/1/6 374/1/6 376/1/6
f 375/3/6 376/3/6 377/3/6
f 377/3/6 376/3/6 378/3/6
f 377/1/6 378/1/6 379/1/6
f 379/1/6 378/1/6 380/1/6
f 379/3/6 380/3/6 381/3/6
f 381/3/6 380/3/6 382/3/6
f 381/1/6 382/1/6 383/1/6
f 383/1/6 382/1/6 384/1/6
f 383/3/6 384/3/6 385/3/6
f 385/3/6 384/3/6 386/3/6
f 385/1/6 386/1/6 387/1/6
f 387/1/6 386/1/6 388/1/6
f 387/3/6 388/3/6 389/3/6
f 389/3/6 388/3/6 390/3/6
f 389/2/6 390/2/6 391/2/6
f 391/2/6 390/2/6 392/2/6
f 393/2/6 394/2/6 395/2/6
f 395/2/6 394/2/6 396/2/6
f 395/3/6 396/3/6 397/3/6
f 397/3/6 396/3/6 398/3/6
f 397/1/6 398/1/6 399/1/6
f 399/1/6 398/1/6 400/1/6
f 399/3/6 400/3/6 401/3/6
f 401/3/6 400/3/6 402/3/6
f 401/1/6 402/1/6 403/1/6
f 403/1/6 402/1/6 404/1/6
f 403/3/6 404/3/6 405/3/6
f 405/3/6 404/3/6 406/3/6
f 405/1/6 406/1/6 407/1/6
f 407/1/6 406/1/6 408/1/6
f 407/3/6 408/3/6 409/3/6
f 409/3/6 408/3/6 410/3/6
f 409/1/6 410/1/6 411/1/6
f 411/1/6 410/1/6 412/1/6
f 411/3/6 412/3/6 413/3/6
f 413/3/6 412/3/6 414/3/6
f 413/2/6 414/2/6 416/2/6
f 415/2/6 416/2/6 417/2/6
f 416/2/6 414/2/6 418/2/6
f 417/2/6 416/2/6 418/2/6
