# MagicaVoxel @ Ephtracy

# material
mtllib f1.mtl
usemtl palette

# normals
vn -1 0 0
vn 1 0 0
vn 0 0 1
vn 0 0 -1
vn 0 -1 0
vn 0 1 0

# texcoords
vt 0.732422 0.5
vt 0.755859 0.5
vt 0.787109 0.5

# verts
v -63 0 63
v -63 0 -63
v -63 126 63
v -63 126 -63
v -62 1 63
v -62 1 -62
v -62 126 63
v -62 126 -62
v 63 0 63
v 63 0 47
v 63 0 43
v 63 0 39
v 63 0 38
v 63 0 37
v 63 0 -37
v 63 0 -38
v 63 0 -39
v 63 0 -43
v 63 0 -47
v 63 0 -63
v 63 1 63
v 63 1 47
v 63 1 43
v 63 1 39
v 63 1 38
v 63 1 37
v 63 1 -37
v 63 1 -38
v 63 1 -39
v 63 1 -43
v 63 1 -47
v 63 1 -62
v 63 126 -62
v 63 126 -63
v -63 0 63
v -63 126 63
v -62 1 63
v -62 126 63
v -43 0 63
v -43 1 63
v -38 0 63
v -38 1 63
v -34 0 63
v -34 1 63
v -33 0 63
v -33 1 63
v -32 0 63
v -32 1 63
v 33 0 63
v 33 1 63
v 34 0 63
v 34 1 63
v 35 0 63
v 35 1 63
v 39 0 63
v 39 1 63
v 43 0 63
v 43 1 63
v 63 0 63
v 63 1 63
v -62 1 -62
v -62 126 -62
v 63 1 -62
v 63 126 -62
v -63 0 -63
v -63 126 -63
v 63 0 -63
v 63 126 -63
v -63 0 63
v -43 0 63
v -38 0 63
v -34 0 63
v -33 0 63
v -32 0 63
v 33 0 63
v 34 0 63
v 35 0 63
v 39 0 63
v 43 0 63
v 63 0 63
v 43 0 47
v 63 0 47
v 39 0 43
v 63 0 43
v 35 0 39
v 63 0 39
v 34 0 38
v 63 0 38
v 33 0 37
v 63 0 37
v -32 0 -37
v 63 0 -37
v -33 0 -38
v 63 0 -38
v -34 0 -39
v 63 0 -39
v -38 0 -43
v 63 0 -43
v -43 0 -47
v 63 0 -47
v -63 0 -63
v 63 0 -63
v -62 1 63
v -43 1 63
v -38 1 63
v -34 1 63
v -33 1 63
v -32 1 63
v 33 1 63
v 34 1 63
v 35 1 63
v 39 1 63
v 43 1 63
v 63 1 63
v 43 1 47
v 63 1 47
v 39 1 43
v 63 1 43
v 35 1 39
v 63 1 39
v 34 1 38
v 63 1 38
v 33 1 37
v 63 1 37
v -32 1 -37
v 63 1 -37
v -33 1 -38
v 63 1 -38
v -34 1 -39
v 63 1 -39
v -38 1 -43
v 63 1 -43
v -43 1 -47
v 63 1 -47
v -62 1 -62
v 63 1 -62
v -63 126 63
v -62 126 63
v -62 126 -62
v 63 126 -62
v -63 126 -63
v 63 126 -63

# faces
f 3/2/1 2/2/1 1/2/1
f 4/2/1 2/2/1 3/2/1
f 5/2/2 6/2/2 7/2/2
f 7/2/2 6/2/2 8/2/2
f 9/2/2 10/2/2 21/2/2
f 10/3/2 11/3/2 22/3/2
f 21/2/2 10/2/2 22/2/2
f 11/1/2 12/1/2 23/1/2
f 22/3/2 11/3/2 23/3/2
f 12/3/2 13/3/2 24/3/2
f 23/1/2 12/1/2 24/1/2
f 13/1/2 14/1/2 25/1/2
f 24/3/2 13/3/2 25/3/2
f 14/3/2 15/3/2 26/3/2
f 25/1/2 14/1/2 26/1/2
f 15/1/2 16/1/2 27/1/2
f 26/3/2 15/3/2 27/3/2
f 16/3/2 17/3/2 28/3/2
f 27/1/2 16/1/2 28/1/2
f 17/1/2 18/1/2 29/1/2
f 28/3/2 17/3/2 29/3/2
f 18/3/2 19/3/2 30/3/2
f 29/1/2 18/1/2 30/1/2
f 19/2/2 20/2/2 31/2/2
f 30/3/2 19/3/2 31/3/2
f 31/2/2 20/2/2 32/2/2
f 32/2/2 20/2/2 33/2/2
f 33/2/2 20/2/2 34/2/2
f 37/2/3 36/2/3 35/2/3
f 38/2/3 36/2/3 37/2/3
f 39/2/3 37/2/3 35/2/3
f 40/2/3 37/2/3 39/2/3
f 41/3/3 40/3/3 39/3/3
f 42/3/3 40/3/3 41/3/3
f 43/1/3 42/1/3 41/1/3
f 44/1/3 42/1/3 43/1/3
f 45/3/3 44/3/3 43/3/3
f 46/3/3 44/3/3 45/3/3
f 47/1/3 46/1/3 45/1/3
f 48/1/3 46/1/3 47/1/3
f 49/3/3 48/3/3 47/3/3
f 50/3/3 48/3/3 49/3/3
f 51/1/3 50/1/3 49/1/3
f 52/1/3 50/1/3 51/1/3
f 53/3/3 52/3/3 51/3/3
f 54/3/3 52/3/3 53/3/3
f 55/1/3 54/1/3 53/1/3
f 56/1/3 54/1/3 55/1/3
f 57/3/3 56/3/3 55/3/3
f 58/3/3 56/3/3 57/3/3
f 59/2/3 58/2/3 57/2/3
f 60/2/3 58/2/3 59/2/3
f 63/2/3 62/2/3 61/2/3
f 64/2/3 62/2/3 63/2/3
f 65/2/4 66/2/4 67/2/4
f 67/2/4 66/2/4 68/2/4
f 81/3/5 79/3/5 78/3/5
f 81/2/5 80/2/5 79/2/5
f 82/2/5 80/2/5 81/2/5
f 83/1/5 78/1/5 77/1/5
f 83/3/5 81/3/5 78/3/5
f 83/3/5 82/3/5 81/3/5
f 84/3/5 82/3/5 83/3/5
f 85/3/5 77/3/5 76/3/5
f 85/1/5 83/1/5 77/1/5
f 85/1/5 84/1/5 83/1/5
f 86/1/5 84/1/5 85/1/5
f 87/1/5 76/1/5 75/1/5
f 87/3/5 85/3/5 76/3/5
f 87/3/5 86/3/5 85/3/5
f 88/3/5 86/3/5 87/3/5
f 89/3/5 75/3/5 74/3/5
f 89/1/5 87/1/5 75/1/5
f 89/1/5 88/1/5 87/1/5
f 90/1/5 88/1/5 89/1/5
f 91/1/5 74/1/5 73/1/5
f 91/3/5 89/3/5 74/3/5
f 91/3/5 90/3/5 89/3/5
f 92/3/5 90/3/5 91/3/5
f 93/3/5 73/3/5 72/3/5
f 93/1/5 91/1/5 73/1/5
f 93/1/5 92/1/5 91/1/5
f 94/1/5 92/1/5 93/1/5
f 95/1/5 72/1/5 71/1/5
f 95/3/5 93/3/5 72/3/5
f 95/3/5 94/3/5 93/3/5
f 96/3/5 94/3/5 95/3/5
f 97/3/5 71/3/5 70/3/5
f 97/1/5 95/1/5 71/1/5
f 97/1/5 96/1/5 95/1/5
f 98/1/5 96/1/5 97/1/5
f 99/2/5 70/2/5 69/2/5
f 99/3/5 97/3/5 70/3/5
f 99/3/5 98/3/5 97/3/5
f 100/3/5 98/3/5 99/3/5
f 101/2/5 99/2/5 69/2/5
f 101/2/5 100/2/5 99/2/5
f 102/2/5 100/2/5 101/2/5
f 112/3/6 113/3/6 115/3/6
f 113/2/6 114/2/6 115/2/6
f 115/2/6 114/2/6 116/2/6
f 111/1/6 112/1/6 117/1/6
f 112/3/6 115/3/6 117/3/6
f 115/3/6 116/3/6 117/3/6
f 117/3/6 116/3/6 118/3/6
f 110/3/6 111/3/6 119/3/6
f 111/1/6 117/1/6 119/1/6
f 117/1/6 118/1/6 119/1/6
f 119/1/6 118/1/6 120/1/6
f 109/1/6 110/1/6 121/1/6
f 110/3/6 119/3/6 121/3/6
f 119/3/6 120/3/6 121/3/6
f 121/3/6 120/3/6 122/3/6
f 108/3/6 109/3/6 123/3/6
f 109/1/6 121/1/6 123/1/6
f 121/1/6 122/1/6 123/1/6
f 123/1/6 122/1/6 124/1/6
f 107/1/6 108/1/6 125/1/6
f 108/3/6 123/3/6 125/3/6
f 123/3/6 124/3/6 125/3/6
f 125/3/6 124/3/6 126/3/6
f 106/3/6 107/3/6 127/3/6
f 107/1/6 125/1/6 127/1/6
f 125/1/6 126/1/6 127/1/6
f 127/1/6 126/1/6 128/1/6
f 105/1/6 106/1/6 129/1/6
f 106/3/6 127/3/6 129/3/6
f 127/3/6 128/3/6 129/3/6
f 129/3/6 128/3/6 130/3/6
f 104/3/6 105/3/6 131/3/6
f 105/1/6 129/1/6 131/1/6
f 129/1/6 130/1/6 131/1/6
f 131/1/6 130/1/6 132/1/6
f 103/2/6 104/2/6 133/2/6
f 104/3/6 131/3/6 133/3/6
f 131/3/6 132/3/6 133/3/6
f 133/3/6 132/3/6 134/3/6
f 103/2/6 133/2/6 135/2/6
f 133/2/6 134/2/6 135/2/6
f 135/2/6 134/2/6 136/2/6
f 137/2/6 138/2/6 139/2/6
f 137/2/6 139/2/6 141/2/6
f 139/2/6 140/2/6 141/2/6
f 141/2/6 140/2/6 142/2/6
