# MagicaVoxel @ Ephtracy

# material
mtllib radio.mtl
usemtl palette

# normals
vn -1 0 0
vn 1 0 0
vn 0 0 1
vn 0 0 -1
vn 0 -1 0
vn 0 1 0

# texcoords
vt 0.724609 0.5
vt 0.728516 0.5
vt 0.908203 0.5

# verts
v -8 0 3
v -8 0 -3
v -8 1 3
v -8 1 -3
v -7 1 3
v -7 1 -3
v -7 7 3
v -7 7 -3
v -6 0 -3
v -6 0 -4
v -6 6 -3
v -6 6 -4
v -6 7 2
v -6 7 -2
v -6 8 2
v -6 8 -2
v -5 2 2
v -5 2 1
v -5 3 2
v -5 3 1
v -5 4 2
v -5 4 1
v -5 5 2
v -5 5 1
v -5 8 1
v -5 8 -0
v -5 9 1
v -5 9 -0
v -4 1 2
v -4 1 1
v -4 2 2
v -4 2 1
v -4 3 2
v -4 3 1
v -4 4 2
v -4 4 1
v -4 5 2
v -4 5 1
v -4 6 2
v -4 6 1
v -2 2 2
v -2 2 1
v -2 3 2
v -2 3 1
v -2 4 2
v -2 4 1
v -2 5 2
v -2 5 1
v -1 1 2
v -1 1 1
v -1 2 2
v -1 2 1
v -1 3 2
v -1 3 1
v -1 4 2
v -1 4 1
v -1 5 2
v -1 5 1
v -1 6 2
v -1 6 1
v 1 2 2
v 1 2 1
v 1 3 2
v 1 3 1
v 1 4 2
v 1 4 1
v 1 5 2
v 1 5 1
v 2 1 2
v 2 1 1
v 2 2 2
v 2 2 1
v 2 3 2
v 2 3 1
v 2 4 2
v 2 4 1
v 2 5 2
v 2 5 1
v 2 6 2
v 2 6 1
v 3 8 1
v 3 8 -0
v 3 9 1
v 3 9 -0
v 4 2 2
v 4 2 1
v 4 3 2
v 4 3 1
v 4 4 2
v 4 4 1
v 4 5 2
v 4 5 1
v 5 1 2
v 5 1 1
v 5 2 2
v 5 2 1
v 5 3 2
v 5 3 1
v 5 4 2
v 5 4 1
v 5 5 2
v 5 5 1
v 5 6 2
v 5 6 1
v 6 1 3
v 6 1 2
v 6 2 2
v 6 2 1
v 6 3 2
v 6 3 1
v 6 4 2
v 6 4 1
v 6 5 2
v 6 5 1
v 6 6 3
v 6 6 2
v -6 1 3
v -6 1 2
v -6 2 2
v -6 2 1
v -6 3 2
v -6 3 1
v -6 4 2
v -6 4 1
v -6 5 2
v -6 5 1
v -6 6 3
v -6 6 2
v -5 1 2
v -5 1 1
v -5 2 2
v -5 2 1
v -5 3 2
v -5 3 1
v -5 4 2
v -5 4 1
v -5 5 2
v -5 5 1
v -5 6 2
v -5 6 1
v -4 2 2
v -4 2 1
v -4 3 2
v -4 3 1
v -4 4 2
v -4 4 1
v -4 5 2
v -4 5 1
v -3 8 1
v -3 8 -0
v -3 9 1
v -3 9 -0
v -2 1 2
v -2 1 1
v -2 2 2
v -2 2 1
v -2 3 2
v -2 3 1
v -2 4 2
v -2 4 1
v -2 5 2
v -2 5 1
v -2 6 2
v -2 6 1
v -1 2 2
v -1 2 1
v -1 3 2
v -1 3 1
v -1 4 2
v -1 4 1
v -1 5 2
v -1 5 1
v 1 1 2
v 1 1 1
v 1 2 2
v 1 2 1
v 1 3 2
v 1 3 1
v 1 4 2
v 1 4 1
v 1 5 2
v 1 5 1
v 1 6 2
v 1 6 1
v 2 2 2
v 2 2 1
v 2 3 2
v 2 3 1
v 2 4 2
v 2 4 1
v 2 5 2
v 2 5 1
v 4 1 2
v 4 1 1
v 4 2 2
v 4 2 1
v 4 3 2
v 4 3 1
v 4 4 2
v 4 4 1
v 4 5 2
v 4 5 1
v 4 6 2
v 4 6 1
v 5 2 2
v 5 2 1
v 5 3 2
v 5 3 1
v 5 4 2
v 5 4 1
v 5 5 2
v 5 5 1
v 5 8 1
v 5 8 -0
v 5 9 1
v 5 9 -0
v 6 0 -3
v 6 0 -4
v 6 6 -3
v 6 6 -4
v 6 7 2
v 6 7 -2
v 6 8 2
v 6 8 -2
v 7 1 3
v 7 1 -3
v 7 7 3
v 7 7 -3
v 8 0 3
v 8 0 -3
v 8 1 3
v 8 1 -3
v -8 0 3
v -8 1 3
v -7 1 3
v -7 7 3
v -6 1 3
v -6 6 3
v 6 1 3
v 6 6 3
v 7 1 3
v 7 7 3
v 8 0 3
v 8 1 3
v -6 1 2
v -6 2 2
v -6 3 2
v -6 4 2
v -6 5 2
v -6 6 2
v -6 7 2
v -6 8 2
v -5 1 2
v -5 2 2
v -5 3 2
v -5 4 2
v -5 5 2
v -5 6 2
v -4 1 2
v -4 2 2
v -4 3 2
v -4 4 2
v -4 5 2
v -4 6 2
v -2 1 2
v -2 2 2
v -2 3 2
v -2 4 2
v -2 5 2
v -2 6 2
v -1 1 2
v -1 2 2
v -1 3 2
v -1 4 2
v -1 5 2
v -1 6 2
v 1 1 2
v 1 2 2
v 1 3 2
v 1 4 2
v 1 5 2
v 1 6 2
v 2 1 2
v 2 2 2
v 2 3 2
v 2 4 2
v 2 5 2
v 2 6 2
v 4 1 2
v 4 2 2
v 4 3 2
v 4 4 2
v 4 5 2
v 4 6 2
v 5 1 2
v 5 2 2
v 5 3 2
v 5 4 2
v 5 5 2
v 5 6 2
v 6 1 2
v 6 2 2
v 6 3 2
v 6 4 2
v 6 5 2
v 6 6 2
v 6 7 2
v 6 8 2
v -6 2 1
v -6 3 1
v -6 4 1
v -6 5 1
v -5 1 1
v -5 2 1
v -5 3 1
v -5 4 1
v -5 5 1
v -5 6 1
v -5 8 1
v -5 9 1
v -4 1 1
v -4 2 1
v -4 3 1
v -4 4 1
v -4 5 1
v -4 6 1
v -3 8 1
v -3 9 1
v -2 1 1
v -2 2 1
v -2 3 1
v -2 4 1
v -2 5 1
v -2 6 1
v -1 1 1
v -1 2 1
v -1 3 1
v -1 4 1
v -1 5 1
v -1 6 1
v 1 1 1
v 1 2 1
v 1 3 1
v 1 4 1
v 1 5 1
v 1 6 1
v 2 1 1
v 2 2 1
v 2 3 1
v 2 4 1
v 2 5 1
v 2 6 1
v 3 8 1
v 3 9 1
v 4 1 1
v 4 2 1
v 4 3 1
v 4 4 1
v 4 5 1
v 4 6 1
v 5 1 1
v 5 2 1
v 5 3 1
v 5 4 1
v 5 5 1
v 5 6 1
v 5 8 1
v 5 9 1
v 6 2 1
v 6 3 1
v 6 4 1
v 6 5 1
v -5 8 -0
v -5 9 -0
v -3 8 -0
v -3 9 -0
v 3 8 -0
v 3 9 -0
v 5 8 -0
v 5 9 -0
v -6 7 -2
v -6 8 -2
v 6 7 -2
v 6 8 -2
v -8 0 -3
v -8 1 -3
v -7 1 -3
v -7 7 -3
v -6 0 -3
v -6 6 -3
v 6 0 -3
v 6 6 -3
v 7 1 -3
v 7 7 -3
v 8 0 -3
v 8 1 -3
v -6 0 -4
v -6 6 -4
v 6 0 -4
v 6 6 -4
v -8 0 3
v 8 0 3
v -8 0 -3
v -6 0 -3
v 6 0 -3
v 8 0 -3
v -6 0 -4
v 6 0 -4
v -5 2 2
v -4 2 2
v -2 2 2
v -1 2 2
v 1 2 2
v 2 2 2
v 4 2 2
v 5 2 2
v -5 2 1
v -4 2 1
v -2 2 1
v -1 2 1
v 1 2 1
v 2 2 1
v 4 2 1
v 5 2 1
v -6 3 2
v -5 3 2
v -4 3 2
v -2 3 2
v -1 3 2
v 1 3 2
v 2 3 2
v 4 3 2
v 5 3 2
v 6 3 2
v -6 3 1
v -5 3 1
v -4 3 1
v -2 3 1
v -1 3 1
v 1 3 1
v 2 3 1
v 4 3 1
v 5 3 1
v 6 3 1
v -5 4 2
v -4 4 2
v -2 4 2
v -1 4 2
v 1 4 2
v 2 4 2
v 4 4 2
v 5 4 2
v -5 4 1
v -4 4 1
v -2 4 1
v -1 4 1
v 1 4 1
v 2 4 1
v 4 4 1
v 5 4 1
v -6 5 2
v -5 5 2
v -4 5 2
v -2 5 2
v -1 5 2
v 1 5 2
v 2 5 2
v 4 5 2
v 5 5 2
v 6 5 2
v -6 5 1
v -5 5 1
v -4 5 1
v -2 5 1
v -1 5 1
v 1 5 1
v 2 5 1
v 4 5 1
v 5 5 1
v 6 5 1
v -6 6 3
v 6 6 3
v -6 6 2
v -5 6 2
v -4 6 2
v -2 6 2
v -1 6 2
v 1 6 2
v 2 6 2
v 4 6 2
v 5 6 2
v 6 6 2
v -5 6 1
v -4 6 1
v -2 6 1
v -1 6 1
v 1 6 1
v 2 6 1
v 4 6 1
v 5 6 1
v -8 1 3
v -7 1 3
v -6 1 3
v 6 1 3
v 7 1 3
v 8 1 3
v -6 1 2
v -5 1 2
v -4 1 2
v -2 1 2
v -1 1 2
v 1 1 2
v 2 1 2
v 4 1 2
v 5 1 2
v 6 1 2
v -5 1 1
v -4 1 1
v -2 1 1
v -1 1 1
v 1 1 1
v 2 1 1
v 4 1 1
v 5 1 1
v -8 1 -3
v -7 1 -3
v 7 1 -3
v 8 1 -3
v -6 2 2
v -5 2 2
v -4 2 2
v -2 2 2
v -1 2 2
v 1 2 2
v 2 2 2
v 4 2 2
v 5 2 2
v 6 2 2
v -6 2 1
v -5 2 1
v -4 2 1
v -2 2 1
v -1 2 1
v 1 2 1
v 2 2 1
v 4 2 1
v 5 2 1
v 6 2 1
v -5 3 2
v -4 3 2
v -2 3 2
v -1 3 2
v 1 3 2
v 2 3 2
v 4 3 2
v 5 3 2
v -5 3 1
v -4 3 1
v -2 3 1
v -1 3 1
v 1 3 1
v 2 3 1
v 4 3 1
v 5 3 1
v -6 4 2
v -5 4 2
v -4 4 2
v -2 4 2
v -1 4 2
v 1 4 2
v 2 4 2
v 4 4 2
v 5 4 2
v 6 4 2
v -6 4 1
v -5 4 1
v -4 4 1
v -2 4 1
v -1 4 1
v 1 4 1
v 2 4 1
v 4 4 1
v 5 4 1
v 6 4 1
v -5 5 2
v -4 5 2
v -2 5 2
v -1 5 2
v 1 5 2
v 2 5 2
v 4 5 2
v 5 5 2
v -5 5 1
v -4 5 1
v -2 5 1
v -1 5 1
v 1 5 1
v 2 5 1
v 4 5 1
v 5 5 1
v -6 6 -3
v 6 6 -3
v -6 6 -4
v 6 6 -4
v -7 7 3
v 7 7 3
v -6 7 2
v 6 7 2
v -6 7 -2
v 6 7 -2
v -7 7 -3
v 7 7 -3
v -6 8 2
v 6 8 2
v -5 8 1
v -3 8 1
v 3 8 1
v 5 8 1
v -5 8 -0
v -3 8 -0
v 3 8 -0
v 5 8 -0
v -6 8 -2
v 6 8 -2
v -5 9 1
v -3 9 1
v 3 9 1
v 5 9 1
v -5 9 -0
v -3 9 -0
v 3 9 -0
v 5 9 -0

# faces
f 3/3/1 2/3/1 1/3/1
f 4/3/1 2/3/1 3/3/1
f 7/3/1 6/3/1 5/3/1
f 8/3/1 6/3/1 7/3/1
f 11/3/1 10/3/1 9/3/1
f 12/3/1 10/3/1 11/3/1
f 15/3/1 14/3/1 13/3/1
f 16/3/1 14/3/1 15/3/1
f 19/2/1 18/2/1 17/2/1
f 20/2/1 18/2/1 19/2/1
f 23/2/1 22/2/1 21/2/1
f 24/2/1 22/2/1 23/2/1
f 27/2/1 26/2/1 25/2/1
f 28/2/1 26/2/1 27/2/1
f 31/2/1 30/2/1 29/2/1
f 32/2/1 30/2/1 31/2/1
f 35/2/1 34/2/1 33/2/1
f 36/2/1 34/2/1 35/2/1
f 39/2/1 38/2/1 37/2/1
f 40/2/1 38/2/1 39/2/1
f 43/2/1 42/2/1 41/2/1
f 44/2/1 42/2/1 43/2/1
f 47/2/1 46/2/1 45/2/1
f 48/2/1 46/2/1 47/2/1
f 51/2/1 50/2/1 49/2/1
f 52/2/1 50/2/1 51/2/1
f 55/2/1 54/2/1 53/2/1
f 56/2/1 54/2/1 55/2/1
f 59/2/1 58/2/1 57/2/1
f 60/2/1 58/2/1 59/2/1
f 63/2/1 62/2/1 61/2/1
f 64/2/1 62/2/1 63/2/1
f 67/2/1 66/2/1 65/2/1
f 68/2/1 66/2/1 67/2/1
f 71/2/1 70/2/1 69/2/1
f 72/2/1 70/2/1 71/2/1
f 75/2/1 74/2/1 73/2/1
f 76/2/1 74/2/1 75/2/1
f 79/2/1 78/2/1 77/2/1
f 80/2/1 78/2/1 79/2/1
f 83/2/1 82/2/1 81/2/1
f 84/2/1 82/2/1 83/2/1
f 87/2/1 86/2/1 85/2/1
f 88/2/1 86/2/1 87/2/1
f 91/2/1 90/2/1 89/2/1
f 92/2/1 90/2/1 91/2/1
f 95/2/1 94/2/1 93/2/1
f 96/2/1 94/2/1 95/2/1
f 99/2/1 98/2/1 97/2/1
f 100/2/1 98/2/1 99/2/1
f 103/2/1 102/2/1 101/2/1
f 104/2/1 102/2/1 103/2/1
f 107/3/1 106/3/1 105/3/1
f 109/3/1 107/3/1 105/3/1
f 109/3/1 108/3/1 107/3/1
f 110/3/1 108/3/1 109/3/1
f 111/3/1 109/3/1 105/3/1
f 113/3/1 111/3/1 105/3/1
f 113/3/1 112/3/1 111/3/1
f 114/3/1 112/3/1 113/3/1
f 115/3/1 113/3/1 105/3/1
f 116/3/1 113/3/1 115/3/1
f 117/3/2 118/3/2 119/3/2
f 117/3/2 119/3/2 121/3/2
f 119/3/2 120/3/2 121/3/2
f 121/3/2 120/3/2 122/3/2
f 117/3/2 121/3/2 123/3/2
f 117/3/2 123/3/2 125/3/2
f 123/3/2 124/3/2 125/3/2
f 125/3/2 124/3/2 126/3/2
f 117/3/2 125/3/2 127/3/2
f 127/3/2 125/3/2 128/3/2
f 129/2/2 130/2/2 131/2/2
f 131/2/2 130/2/2 132/2/2
f 133/2/2 134/2/2 135/2/2
f 135/2/2 134/2/2 136/2/2
f 137/2/2 138/2/2 139/2/2
f 139/2/2 138/2/2 140/2/2
f 141/2/2 142/2/2 143/2/2
f 143/2/2 142/2/2 144/2/2
f 145/2/2 146/2/2 147/2/2
f 147/2/2 146/2/2 148/2/2
f 149/2/2 150/2/2 151/2/2
f 151/2/2 150/2/2 152/2/2
f 153/2/2 154/2/2 155/2/2
f 155/2/2 154/2/2 156/2/2
f 157/2/2 158/2/2 159/2/2
f 159/2/2 158/2/2 160/2/2
f 161/2/2 162/2/2 163/2/2
f 163/2/2 162/2/2 164/2/2
f 165/2/2 166/2/2 167/2/2
f 167/2/2 166/2/2 168/2/2
f 169/2/2 170/2/2 171/2/2
f 171/2/2 170/2/2 172/2/2
f 173/2/2 174/2/2 175/2/2
f 175/2/2 174/2/2 176/2/2
f 177/2/2 178/2/2 179/2/2
f 179/2/2 178/2/2 180/2/2
f 181/2/2 182/2/2 183/2/2
f 183/2/2 182/2/2 184/2/2
f 185/2/2 186/2/2 187/2/2
f 187/2/2 186/2/2 188/2/2
f 189/2/2 190/2/2 191/2/2
f 191/2/2 190/2/2 192/2/2
f 193/2/2 194/2/2 195/2/2
f 195/2/2 194/2/2 196/2/2
f 197/2/2 198/2/2 199/2/2
f 199/2/2 198/2/2 200/2/2
f 201/2/2 202/2/2 203/2/2
f 203/2/2 202/2/2 204/2/2
f 205/2/2 206/2/2 207/2/2
f 207/2/2 206/2/2 208/2/2
f 209/2/2 210/2/2 211/2/2
f 211/2/2 210/2/2 212/2/2
f 213/2/2 214/2/2 215/2/2
f 215/2/2 214/2/2 216/2/2
f 217/3/2 218/3/2 219/3/2
f 219/3/2 218/3/2 220/3/2
f 221/3/2 222/3/2 223/3/2
f 223/3/2 222/3/2 224/3/2
f 225/3/2 226/3/2 227/3/2
f 227/3/2 226/3/2 228/3/2
f 229/3/2 230/3/2 231/3/2
f 231/3/2 230/3/2 232/3/2
f 235/3/3 234/3/3 233/3/3
f 237/3/3 235/3/3 233/3/3
f 237/3/3 236/3/3 235/3/3
f 238/3/3 236/3/3 237/3/3
f 239/3/3 237/3/3 233/3/3
f 240/3/3 236/3/3 238/3/3
f 241/3/3 239/3/3 233/3/3
f 241/3/3 240/3/3 239/3/3
f 242/3/3 236/3/3 240/3/3
f 242/3/3 240/3/3 241/3/3
f 243/3/3 241/3/3 233/3/3
f 244/3/3 241/3/3 243/3/3
f 253/2/3 246/2/3 245/2/3
f 254/2/3 246/2/3 253/2/3
f 255/2/3 248/2/3 247/2/3
f 256/2/3 248/2/3 255/2/3
f 257/2/3 250/2/3 249/2/3
f 258/2/3 250/2/3 257/2/3
f 260/2/3 255/2/3 254/2/3
f 261/2/3 255/2/3 260/2/3
f 262/2/3 257/2/3 256/2/3
f 263/2/3 257/2/3 262/2/3
f 265/2/3 260/2/3 259/2/3
f 266/2/3 260/2/3 265/2/3
f 267/2/3 262/2/3 261/2/3
f 268/2/3 262/2/3 267/2/3
f 269/2/3 264/2/3 263/2/3
f 270/2/3 264/2/3 269/2/3
f 272/2/3 267/2/3 266/2/3
f 273/2/3 267/2/3 272/2/3
f 274/2/3 269/2/3 268/2/3
f 275/2/3 269/2/3 274/2/3
f 277/2/3 272/2/3 271/2/3
f 278/2/3 272/2/3 277/2/3
f 279/2/3 274/2/3 273/2/3
f 280/2/3 274/2/3 279/2/3
f 281/2/3 276/2/3 275/2/3
f 282/2/3 276/2/3 281/2/3
f 284/2/3 279/2/3 278/2/3
f 285/2/3 279/2/3 284/2/3
f 286/2/3 281/2/3 280/2/3
f 287/2/3 281/2/3 286/2/3
f 289/2/3 284/2/3 283/2/3
f 290/2/3 284/2/3 289/2/3
f 291/2/3 286/2/3 285/2/3
f 292/2/3 286/2/3 291/2/3
f 293/2/3 288/2/3 287/2/3
f 294/2/3 288/2/3 293/2/3
f 296/2/3 291/2/3 290/2/3
f 297/2/3 291/2/3 296/2/3
f 298/2/3 293/2/3 292/2/3
f 299/2/3 293/2/3 298/2/3
f 301/2/3 296/2/3 295/2/3
f 302/2/3 296/2/3 301/2/3
f 303/2/3 298/2/3 297/2/3
f 304/2/3 298/2/3 303/2/3
f 305/2/3 300/2/3 299/2/3
f 306/2/3 300/2/3 305/2/3
f 307/3/3 252/3/3 251/3/3
f 308/3/3 252/3/3 307/3/3
f 314/1/3 310/1/3 309/1/3
f 315/1/3 310/1/3 314/1/3
f 316/1/3 312/1/3 311/1/3
f 317/1/3 312/1/3 316/1/3
f 321/1/3 314/1/3 313/1/3
f 322/1/3 314/1/3 321/1/3
f 323/1/3 316/1/3 315/1/3
f 324/1/3 316/1/3 323/1/3
f 325/1/3 318/1/3 317/1/3
f 326/1/3 318/1/3 325/1/3
f 327/2/3 320/2/3 319/2/3
f 328/2/3 320/2/3 327/2/3
f 330/1/3 323/1/3 322/1/3
f 331/1/3 323/1/3 330/1/3
f 332/1/3 325/1/3 324/1/3
f 333/1/3 325/1/3 332/1/3
f 335/1/3 330/1/3 329/1/3
f 336/1/3 330/1/3 335/1/3
f 337/1/3 332/1/3 331/1/3
f 338/1/3 332/1/3 337/1/3
f 339/1/3 334/1/3 333/1/3
f 340/1/3 334/1/3 339/1/3
f 342/1/3 337/1/3 336/1/3
f 343/1/3 337/1/3 342/1/3
f 344/1/3 339/1/3 338/1/3
f 345/1/3 339/1/3 344/1/3
f 347/1/3 342/1/3 341/1/3
f 348/1/3 342/1/3 347/1/3
f 349/1/3 344/1/3 343/1/3
f 350/1/3 344/1/3 349/1/3
f 351/1/3 346/1/3 345/1/3
f 352/1/3 346/1/3 351/1/3
f 356/1/3 349/1/3 348/1/3
f 357/1/3 349/1/3 356/1/3
f 358/1/3 351/1/3 350/1/3
f 359/1/3 351/1/3 358/1/3
f 361/1/3 356/1/3 355/1/3
f 362/1/3 356/1/3 361/1/3
f 363/1/3 358/1/3 357/1/3
f 364/1/3 358/1/3 363/1/3
f 365/1/3 360/1/3 359/1/3
f 366/1/3 360/1/3 365/1/3
f 367/2/3 354/2/3 353/2/3
f 368/2/3 354/2/3 367/2/3
f 369/1/3 363/1/3 362/1/3
f 370/1/3 363/1/3 369/1/3
f 371/1/3 365/1/3 364/1/3
f 372/1/3 365/1/3 371/1/3
f 373/2/4 374/2/4 375/2/4
f 375/2/4 374/2/4 376/2/4
f 377/2/4 378/2/4 379/2/4
f 379/2/4 378/2/4 380/2/4
f 381/3/4 382/3/4 383/3/4
f 383/3/4 382/3/4 384/3/4
f 385/3/4 386/3/4 387/3/4
f 385/3/4 387/3/4 389/3/4
f 387/3/4 388/3/4 389/3/4
f 389/3/4 388/3/4 390/3/4
f 390/3/4 388/3/4 392/3/4
f 391/3/4 392/3/4 393/3/4
f 392/3/4 388/3/4 394/3/4
f 393/3/4 392/3/4 394/3/4
f 391/3/4 393/3/4 395/3/4
f 395/3/4 393/3/4 396/3/4
f 397/3/4 398/3/4 399/3/4
f 399/3/4 398/3/4 400/3/4
f 403/3/5 402/3/5 401/3/5
f 404/3/5 402/3/5 403/3/5
f 405/3/5 402/3/5 404/3/5
f 406/3/5 402/3/5 405/3/5
f 407/3/5 405/3/5 404/3/5
f 408/3/5 405/3/5 407/3/5
f 417/2/5 410/2/5 409/2/5
f 418/2/5 410/2/5 417/2/5
f 419/2/5 412/2/5 411/2/5
f 420/2/5 412/2/5 419/2/5
f 421/2/5 414/2/5 413/2/5
f 422/2/5 414/2/5 421/2/5
f 423/2/5 416/2/5 415/2/5
f 424/2/5 416/2/5 423/2/5
f 435/2/5 426/2/5 425/2/5
f 436/2/5 426/2/5 435/2/5
f 437/2/5 428/2/5 427/2/5
f 438/2/5 428/2/5 437/2/5
f 439/2/5 430/2/5 429/2/5
f 440/2/5 430/2/5 439/2/5
f 441/2/5 432/2/5 431/2/5
f 442/2/5 432/2/5 441/2/5
f 443/2/5 434/2/5 433/2/5
f 444/2/5 434/2/5 443/2/5
f 453/2/5 446/2/5 445/2/5
f 454/2/5 446/2/5 453/2/5
f 455/2/5 448/2/5 447/2/5
f 456/2/5 448/2/5 455/2/5
f 457/2/5 450/2/5 449/2/5
f 458/2/5 450/2/5 457/2/5
f 459/2/5 452/2/5 451/2/5
f 460/2/5 452/2/5 459/2/5
f 471/2/5 462/2/5 461/2/5
f 472/2/5 462/2/5 471/2/5
f 473/2/5 464/2/5 463/2/5
f 474/2/5 464/2/5 473/2/5
f 475/2/5 466/2/5 465/2/5
f 476/2/5 466/2/5 475/2/5
f 477/2/5 468/2/5 467/2/5
f 478/2/5 468/2/5 477/2/5
f 479/2/5 470/2/5 469/2/5
f 480/2/5 470/2/5 479/2/5
f 483/3/5 482/3/5 481/3/5
f 484/3/5 482/3/5 483/3/5
f 485/3/5 482/3/5 484/3/5
f 486/3/5 482/3/5 485/3/5
f 487/3/5 482/3/5 486/3/5
f 488/3/5 482/3/5 487/3/5
f 489/3/5 482/3/5 488/3/5
f 490/3/5 482/3/5 489/3/5
f 491/3/5 482/3/5 490/3/5
f 492/3/5 482/3/5 491/3/5
f 493/3/5 485/3/5 484/3/5
f 494/3/5 485/3/5 493/3/5
f 495/3/5 487/3/5 486/3/5
f 496/3/5 487/3/5 495/3/5
f 497/3/5 489/3/5 488/3/5
f 498/3/5 489/3/5 497/3/5
f 499/3/5 491/3/5 490/3/5
f 500/3/5 491/3/5 499/3/5
f 503/3/6 504/3/6 507/3/6
f 507/3/6 504/3/6 508/3/6
f 508/3/6 504/3/6 509/3/6
f 509/3/6 504/3/6 510/3/6
f 510/3/6 504/3/6 511/3/6
f 511/3/6 504/3/6 512/3/6
f 512/3/6 504/3/6 513/3/6
f 513/3/6 504/3/6 514/3/6
f 514/3/6 504/3/6 515/3/6
f 515/3/6 504/3/6 516/3/6
f 508/3/6 509/3/6 517/3/6
f 517/3/6 509/3/6 518/3/6
f 510/3/6 511/3/6 519/3/6
f 519/3/6 511/3/6 520/3/6
f 512/3/6 513/3/6 521/3/6
f 521/3/6 513/3/6 522/3/6
f 514/3/6 515/3/6 523/3/6
f 523/3/6 515/3/6 524/3/6
f 501/3/6 502/3/6 525/3/6
f 525/3/6 502/3/6 526/3/6
f 505/3/6 506/3/6 527/3/6
f 527/3/6 506/3/6 528/3/6
f 529/2/6 530/2/6 539/2/6
f 539/2/6 530/2/6 540/2/6
f 531/2/6 532/2/6 541/2/6
f 541/2/6 532/2/6 542/2/6
f 533/2/6 534/2/6 543/2/6
f 543/2/6 534/2/6 544/2/6
f 535/2/6 536/2/6 545/2/6
f 545/2/6 536/2/6 546/2/6
f 537/2/6 538/2/6 547/2/6
f 547/2/6 538/2/6 548/2/6
f 549/2/6 550/2/6 557/2/6
f 557/2/6 550/2/6 558/2/6
f 551/2/6 552/2/6 559/2/6
f 559/2/6 552/2/6 560/2/6
f 553/2/6 554/2/6 561/2/6
f 561/2/6 554/2/6 562/2/6
f 555/2/6 556/2/6 563/2/6
f 563/2/6 556/2/6 564/2/6
f 565/2/6 566/2/6 575/2/6
f 575/2/6 566/2/6 576/2/6
f 567/2/6 568/2/6 577/2/6
f 577/2/6 568/2/6 578/2/6
f 569/2/6 570/2/6 579/2/6
f 579/2/6 570/2/6 580/2/6
f 571/2/6 572/2/6 581/2/6
f 581/2/6 572/2/6 582/2/6
f 573/2/6 574/2/6 583/2/6
f 583/2/6 574/2/6 584/2/6
f 585/2/6 586/2/6 593/2/6
f 593/2/6 586/2/6 594/2/6
f 587/2/6 588/2/6 595/2/6
f 595/2/6 588/2/6 596/2/6
f 589/2/6 590/2/6 597/2/6
f 597/2/6 590/2/6 598/2/6
f 591/2/6 592/2/6 599/2/6
f 599/2/6 592/2/6 600/2/6
f 601/3/6 602/3/6 603/3/6
f 603/3/6 602/3/6 604/3/6
f 605/3/6 606/3/6 607/3/6
f 607/3/6 606/3/6 608/3/6
f 605/3/6 607/3/6 609/3/6
f 608/3/6 606/3/6 610/3/6
f 605/3/6 609/3/6 611/3/6
f 609/3/6 610/3/6 611/3/6
f 610/3/6 606/3/6 612/3/6
f 611/3/6 610/3/6 612/3/6
f 613/3/6 614/3/6 615/3/6
f 615/3/6 614/3/6 616/3/6
f 616/3/6 614/3/6 617/3/6
f 617/3/6 614/3/6 618/3/6
f 613/3/6 615/3/6 619/3/6
f 616/3/6 617/3/6 620/3/6
f 620/3/6 617/3/6 621/3/6
f 618/3/6 614/3/6 622/3/6
f 620/3/6 621/3/6 623/3/6
f 621/3/6 622/3/6 623/3/6
f 613/3/6 619/3/6 623/3/6
f 619/3/6 620/3/6 623/3/6
f 622/3/6 614/3/6 624/3/6
f 623/3/6 622/3/6 624/3/6
f 625/2/6 626/2/6 629/2/6
f 629/2/6 626/2/6 630/2/6
f 627/2/6 628/2/6 631/2/6
f 631/2/6 628/2/6 632/2/6
