# MagicaVoxel @ Ephtracy

# group
g Livre 6

# material
mtllib Livre 6.mtl
usemtl palette

# normals
vn -1 0 0
vn 1 0 0
vn 0 0 1
vn 0 0 -1
vn 0 -1 0
vn 0 1 0

# texcoords
vt 0.771484 0.5
vt 0.818359 0.5
vt 0.869141 0.5

# verts
v 5 0 -2
v 5 0 -7
v 5 5 -2
v 5 5 -7
v 5 6 -2
v 5 6 -7
v 5 8 -2
v 5 8 -7
v 8 0 -2
v 8 0 -7
v 8 5 -2
v 8 5 -7
v 8 6 -2
v 8 6 -7
v 8 8 -2
v 8 8 -7
v 5 0 -2
v 5 5 -2
v 5 6 -2
v 5 8 -2
v 8 0 -2
v 8 5 -2
v 8 6 -2
v 8 8 -2
v 5 0 -7
v 5 5 -7
v 5 6 -7
v 5 8 -7
v 6 0 -7
v 6 5 -7
v 6 6 -7
v 6 8 -7
v 7 0 -7
v 7 5 -7
v 7 6 -7
v 7 8 -7
v 8 0 -7
v 8 5 -7
v 8 6 -7
v 8 8 -7
v 5 0 -2
v 8 0 -2
v 6 0 -3
v 7 0 -3
v 5 0 -7
v 6 0 -7
v 7 0 -7
v 8 0 -7
v 5 8 -2
v 8 8 -2
v 6 8 -3
v 7 8 -3
v 5 8 -7
v 6 8 -7
v 7 8 -7
v 8 8 -7

# faces
f 3/2/1 2/2/1 1/2/1
f 4/2/1 2/2/1 3/2/1
f 5/3/1 4/3/1 3/3/1
f 6/3/1 4/3/1 5/3/1
f 7/2/1 6/2/1 5/2/1
f 8/2/1 6/2/1 7/2/1
f 9/2/2 10/2/2 11/2/2
f 11/2/2 10/2/2 12/2/2
f 11/3/2 12/3/2 13/3/2
f 13/3/2 12/3/2 14/3/2
f 13/2/2 14/2/2 15/2/2
f 15/2/2 14/2/2 16/2/2
f 21/2/3 18/2/3 17/2/3
f 22/3/3 19/3/3 18/3/3
f 22/2/3 18/2/3 21/2/3
f 23/2/3 20/2/3 19/2/3
f 23/3/3 19/3/3 22/3/3
f 24/2/3 20/2/3 23/2/3
f 25/2/4 26/2/4 29/2/4
f 26/3/4 27/3/4 30/3/4
f 29/2/4 26/2/4 30/2/4
f 27/2/4 28/2/4 31/2/4
f 30/3/4 27/3/4 31/3/4
f 31/2/4 28/2/4 32/2/4
f 29/1/4 30/1/4 33/1/4
f 30/1/4 31/1/4 33/1/4
f 31/1/4 32/1/4 33/1/4
f 33/1/4 32/1/4 34/1/4
f 34/1/4 32/1/4 35/1/4
f 35/1/4 32/1/4 36/1/4
f 33/2/4 34/2/4 37/2/4
f 34/3/4 35/3/4 38/3/4
f 37/2/4 34/2/4 38/2/4
f 35/2/4 36/2/4 39/2/4
f 38/3/4 35/3/4 39/3/4
f 39/2/4 36/2/4 40/2/4
f 43/2/5 42/2/5 41/2/5
f 44/2/5 42/2/5 43/2/5
f 45/2/5 43/2/5 41/2/5
f 46/1/5 44/1/5 43/1/5
f 46/2/5 43/2/5 45/2/5
f 47/2/5 42/2/5 44/2/5
f 47/1/5 44/1/5 46/1/5
f 48/2/5 42/2/5 47/2/5
f 49/2/6 50/2/6 51/2/6
f 51/2/6 50/2/6 52/2/6
f 49/2/6 51/2/6 53/2/6
f 51/1/6 52/1/6 54/1/6
f 53/2/6 51/2/6 54/2/6
f 52/2/6 50/2/6 55/2/6
f 54/1/6 52/1/6 55/1/6
f 55/2/6 50/2/6 56/2/6
