# MagicaVoxel @ Ephtracy

# material
mtllib i1.mtl
usemtl palette

# normals
vn -1 0 0
vn 1 0 0
vn 0 0 1
vn 0 0 -1
vn 0 -1 0
vn 0 1 0

# texcoords
vt 0.732422 0.5
vt 0.751953 0.5
vt 0.755859 0.5
vt 0.759766 0.5
vt 0.763672 0.5
vt 0.783203 0.5
vt 0.787109 0.5
vt 0.853516 0.5
vt 0.857422 0.5

# verts
v -63 0 63
v -63 0 8
v -63 0 7
v -63 0 -63
v -63 1 63
v -63 1 10
v -63 1 8
v -63 1 6
v -63 1 -63
v -63 5 10
v -63 5 9
v -63 7 9
v -63 7 8
v -63 45 6
v -63 45 -63
v -63 48 7
v -63 48 6
v -63 48 -63
v -63 49 7
v -63 49 6
v -63 49 -63
v -63 50 8
v -63 50 7
v -63 50 6
v -63 50 -63
v -63 53 8
v -63 53 7
v -63 54 8
v -63 54 7
v -63 55 8
v -63 55 7
v -63 65 7
v -63 65 6
v -63 65 -63
v -63 66 7
v -63 66 6
v -63 66 -63
v -63 67 7
v -63 67 6
v -63 67 -63
v -63 70 6
v -63 70 -63
v -63 75 8
v -63 75 7
v -63 76 8
v -63 76 7
v -63 77 8
v -63 77 7
v -63 80 8
v -63 80 7
v -63 120 10
v -63 120 8
v -63 121 11
v -63 121 10
v -63 124 63
v -63 124 11
v -63 125 63
v -63 125 11
v -63 125 6
v -63 125 -63
v -63 126 63
v -63 126 11
v -63 126 7
v -63 126 -63
v -62 1 6
v -62 1 -63
v -62 45 6
v -62 45 -63
v -62 48 6
v -62 48 -63
v -62 49 6
v -62 49 -63
v -62 50 6
v -62 50 -63
v -62 65 6
v -62 65 -63
v -62 66 6
v -62 66 -63
v -62 67 6
v -62 67 -63
v -62 70 6
v -62 70 -63
v -62 125 6
v -62 125 -63
v 63 0 63
v 63 0 8
v 63 0 7
v 63 0 6
v 63 0 -63
v 63 1 63
v 63 1 10
v 63 1 8
v 63 1 7
v 63 1 6
v 63 1 -63
v 63 5 10
v 63 5 9
v 63 7 9
v 63 7 8
v 63 45 7
v 63 45 6
v 63 48 7
v 63 48 6
v 63 49 7
v 63 49 6
v 63 50 8
v 63 50 7
v 63 50 6
v 63 53 8
v 63 53 7
v 63 54 8
v 63 54 7
v 63 55 8
v 63 55 7
v 63 65 7
v 63 65 6
v 63 66 7
v 63 66 6
v 63 67 7
v 63 67 6
v 63 70 7
v 63 70 6
v 63 75 8
v 63 75 7
v 63 76 8
v 63 76 7
v 63 77 8
v 63 77 7
v 63 80 8
v 63 80 7
v 63 120 10
v 63 120 8
v 63 121 11
v 63 121 10
v 63 124 63
v 63 124 11
v 63 125 63
v 63 125 11
v 63 125 7
v 63 125 6
v 63 125 -63
v 63 126 63
v 63 126 11
v 63 126 7
v 63 126 6
v 63 126 -63
v -63 0 63
v -63 1 63
v -63 124 63
v -63 125 63
v -63 126 63
v 63 0 63
v 63 1 63
v 63 124 63
v 63 125 63
v 63 126 63
v -63 121 11
v -63 124 11
v 63 121 11
v 63 124 11
v -63 1 10
v -63 5 10
v -63 120 10
v -63 121 10
v 63 1 10
v 63 5 10
v 63 120 10
v 63 121 10
v -63 5 9
v -63 7 9
v 63 5 9
v 63 7 9
v -63 7 8
v -63 50 8
v -63 53 8
v -63 54 8
v -63 55 8
v -63 75 8
v -63 76 8
v -63 77 8
v -63 80 8
v -63 120 8
v 63 7 8
v 63 50 8
v 63 53 8
v 63 54 8
v 63 55 8
v 63 75 8
v 63 76 8
v 63 77 8
v 63 80 8
v 63 120 8
v -62 1 6
v -62 45 6
v -62 48 6
v -62 49 6
v -62 50 6
v -62 65 6
v -62 66 6
v -62 67 6
v -62 70 6
v -62 125 6
v 63 1 6
v 63 45 6
v 63 48 6
v 63 49 6
v 63 50 6
v 63 65 6
v 63 66 6
v 63 67 6
v 63 70 6
v 63 125 6
v -63 0 -63
v -63 1 -63
v -63 45 -63
v -63 48 -63
v -63 49 -63
v -63 50 -63
v -63 65 -63
v -63 66 -63
v -63 67 -63
v -63 70 -63
v -63 125 -63
v -63 126 -63
v -62 0 -63
v -62 1 -63
v -62 45 -63
v -62 48 -63
v -62 49 -63
v -62 50 -63
v -62 65 -63
v -62 66 -63
v -62 67 -63
v -62 70 -63
v -62 125 -63
v -62 126 -63
v 63 0 -63
v 63 1 -63
v 63 125 -63
v 63 126 -63
v -63 0 63
v 63 0 63
v -63 0 8
v 63 0 8
v -63 0 7
v 63 0 7
v -62 0 6
v 63 0 6
v -63 0 -63
v -62 0 -63
v 63 0 -63
v -63 120 10
v 63 120 10
v -63 120 8
v 63 120 8
v -63 121 11
v 63 121 11
v -63 121 10
v 63 121 10
v -63 124 63
v 63 124 63
v -63 124 11
v 63 124 11
v -62 125 6
v 63 125 6
v -62 125 -63
v 63 125 -63
v -63 1 63
v 63 1 63
v -63 1 10
v 63 1 10
v -62 1 6
v 63 1 6
v -62 1 -63
v 63 1 -63
v -63 5 10
v 63 5 10
v -63 5 9
v 63 5 9
v -63 7 9
v 63 7 9
v -63 7 8
v 63 7 8
v -63 126 63
v 63 126 63
v -63 126 11
v 63 126 11
v -63 126 7
v 63 126 7
v -62 126 6
v 63 126 6
v -63 126 -63
v -62 126 -63
v 63 126 -63

# faces
f 5/2/1 2/2/1 1/2/1
f 6/2/1 2/2/1 5/2/1
f 7/4/1 3/4/1 2/4/1
f 7/2/1 2/2/1 6/2/1
f 8/3/1 4/3/1 3/3/1
f 9/3/1 4/3/1 8/3/1
f 10/4/1 7/4/1 6/4/1
f 11/4/1 7/4/1 10/4/1
f 12/4/1 7/4/1 11/4/1
f 13/4/1 3/4/1 7/4/1
f 13/4/1 7/4/1 12/4/1
f 14/5/1 9/5/1 8/5/1
f 14/3/1 8/3/1 3/3/1
f 15/5/1 9/5/1 14/5/1
f 16/4/1 3/4/1 13/4/1
f 16/3/1 14/3/1 3/3/1
f 17/6/1 15/6/1 14/6/1
f 17/3/1 14/3/1 16/3/1
f 18/6/1 15/6/1 17/6/1
f 19/4/1 16/4/1 13/4/1
f 19/9/1 17/9/1 16/9/1
f 20/7/1 18/7/1 17/7/1
f 20/9/1 17/9/1 19/9/1
f 21/7/1 18/7/1 20/7/1
f 22/4/1 19/4/1 13/4/1
f 23/8/1 20/8/1 19/8/1
f 23/4/1 19/4/1 22/4/1
f 24/6/1 21/6/1 20/6/1
f 24/8/1 20/8/1 23/8/1
f 25/6/1 21/6/1 24/6/1
f 26/1/1 23/1/1 22/1/1
f 27/9/1 24/9/1 23/9/1
f 27/1/1 23/1/1 26/1/1
f 28/7/1 27/7/1 26/7/1
f 29/9/1 24/9/1 27/9/1
f 29/7/1 27/7/1 28/7/1
f 30/1/1 29/1/1 28/1/1
f 31/9/1 24/9/1 29/9/1
f 31/1/1 29/1/1 30/1/1
f 32/7/1 31/7/1 30/7/1
f 32/9/1 24/9/1 31/9/1
f 33/7/1 25/7/1 24/7/1
f 33/9/1 24/9/1 32/9/1
f 34/7/1 25/7/1 33/7/1
f 35/7/1 32/7/1 30/7/1
f 35/8/1 33/8/1 32/8/1
f 36/6/1 34/6/1 33/6/1
f 36/8/1 33/8/1 35/8/1
f 37/6/1 34/6/1 36/6/1
f 38/7/1 35/7/1 30/7/1
f 38/9/1 36/9/1 35/9/1
f 39/7/1 37/7/1 36/7/1
f 39/9/1 36/9/1 38/9/1
f 40/7/1 37/7/1 39/7/1
f 41/3/1 39/3/1 38/3/1
f 41/6/1 40/6/1 39/6/1
f 42/6/1 40/6/1 41/6/1
f 43/7/1 38/7/1 30/7/1
f 44/3/1 41/3/1 38/3/1
f 44/7/1 38/7/1 43/7/1
f 45/1/1 44/1/1 43/1/1
f 46/3/1 41/3/1 44/3/1
f 46/1/1 44/1/1 45/1/1
f 47/7/1 46/7/1 45/7/1
f 48/3/1 41/3/1 46/3/1
f 48/7/1 46/7/1 47/7/1
f 49/1/1 48/1/1 47/1/1
f 50/3/1 41/3/1 48/3/1
f 50/1/1 48/1/1 49/1/1
f 52/4/1 50/4/1 49/4/1
f 54/4/1 52/4/1 51/4/1
f 56/4/1 54/4/1 53/4/1
f 57/4/1 56/4/1 55/4/1
f 58/4/1 54/4/1 56/4/1
f 58/4/1 56/4/1 57/4/1
f 59/5/1 42/5/1 41/5/1
f 59/3/1 41/3/1 50/3/1
f 60/5/1 42/5/1 59/5/1
f 61/5/1 58/5/1 57/5/1
f 62/4/1 54/4/1 58/4/1
f 62/5/1 58/5/1 61/5/1
f 63/4/1 50/4/1 52/4/1
f 63/4/1 54/4/1 62/4/1
f 63/4/1 52/4/1 54/4/1
f 63/3/1 60/3/1 59/3/1
f 63/3/1 59/3/1 50/3/1
f 64/3/1 60/3/1 63/3/1
f 65/5/2 66/5/2 67/5/2
f 67/5/2 66/5/2 68/5/2
f 67/6/2 68/6/2 69/6/2
f 69/6/2 68/6/2 70/6/2
f 69/7/2 70/7/2 71/7/2
f 71/7/2 70/7/2 72/7/2
f 71/6/2 72/6/2 73/6/2
f 73/6/2 72/6/2 74/6/2
f 73/7/2 74/7/2 75/7/2
f 75/7/2 74/7/2 76/7/2
f 75/6/2 76/6/2 77/6/2
f 77/6/2 76/6/2 78/6/2
f 77/7/2 78/7/2 79/7/2
f 79/7/2 78/7/2 80/7/2
f 79/6/2 80/6/2 81/6/2
f 81/6/2 80/6/2 82/6/2
f 81/5/2 82/5/2 83/5/2
f 83/5/2 82/5/2 84/5/2
f 85/2/2 86/2/2 90/2/2
f 90/2/2 86/2/2 91/2/2
f 86/4/2 87/4/2 92/4/2
f 91/2/2 86/2/2 92/2/2
f 87/3/2 88/3/2 93/3/2
f 92/4/2 87/4/2 93/4/2
f 88/4/2 89/4/2 94/4/2
f 93/3/2 88/3/2 94/3/2
f 94/4/2 89/4/2 95/4/2
f 92/4/2 93/4/2 96/4/2
f 91/4/2 92/4/2 96/4/2
f 96/4/2 93/4/2 97/4/2
f 97/4/2 93/4/2 98/4/2
f 98/4/2 93/4/2 99/4/2
f 93/5/2 94/5/2 100/5/2
f 99/4/2 93/4/2 100/4/2
f 100/5/2 94/5/2 101/5/2
f 99/4/2 100/4/2 102/4/2
f 100/6/2 101/6/2 102/6/2
f 102/6/2 101/6/2 103/6/2
f 99/4/2 102/4/2 104/4/2
f 102/7/2 103/7/2 104/7/2
f 104/7/2 103/7/2 105/7/2
f 99/4/2 104/4/2 106/4/2
f 104/6/2 105/6/2 107/6/2
f 106/4/2 104/4/2 107/4/2
f 107/6/2 105/6/2 108/6/2
f 106/1/2 107/1/2 109/1/2
f 107/7/2 108/7/2 110/7/2
f 109/1/2 107/1/2 110/1/2
f 109/7/2 110/7/2 111/7/2
f 110/7/2 108/7/2 112/7/2
f 111/7/2 110/7/2 112/7/2
f 111/1/2 112/1/2 113/1/2
f 112/7/2 108/7/2 114/7/2
f 113/1/2 112/1/2 114/1/2
f 113/7/2 114/7/2 115/7/2
f 114/7/2 108/7/2 115/7/2
f 115/7/2 108/7/2 116/7/2
f 113/7/2 115/7/2 117/7/2
f 115/6/2 116/6/2 117/6/2
f 117/6/2 116/6/2 118/6/2
f 113/7/2 117/7/2 119/7/2
f 117/7/2 118/7/2 119/7/2
f 119/7/2 118/7/2 120/7/2
f 113/7/2 119/7/2 121/7/2
f 119/6/2 120/6/2 121/6/2
f 121/6/2 120/6/2 122/6/2
f 113/7/2 121/7/2 123/7/2
f 121/5/2 122/5/2 124/5/2
f 123/7/2 121/7/2 124/7/2
f 123/1/2 124/1/2 125/1/2
f 124/5/2 122/5/2 126/5/2
f 125/1/2 124/1/2 126/1/2
f 125/7/2 126/7/2 127/7/2
f 126/5/2 122/5/2 128/5/2
f 127/7/2 126/7/2 128/7/2
f 127/1/2 128/1/2 129/1/2
f 128/5/2 122/5/2 130/5/2
f 129/1/2 128/1/2 130/1/2
f 129/4/2 130/4/2 132/4/2
f 131/4/2 132/4/2 134/4/2
f 133/4/2 134/4/2 136/4/2
f 135/4/2 136/4/2 137/4/2
f 136/4/2 134/4/2 138/4/2
f 137/4/2 136/4/2 138/4/2
f 130/5/2 122/5/2 139/5/2
f 138/4/2 134/4/2 139/4/2
f 132/4/2 130/4/2 139/4/2
f 134/4/2 132/4/2 139/4/2
f 139/5/2 122/5/2 140/5/2
f 137/5/2 138/5/2 142/5/2
f 138/4/2 139/4/2 143/4/2
f 142/5/2 138/5/2 143/5/2
f 139/3/2 140/3/2 144/3/2
f 143/4/2 139/4/2 144/4/2
f 140/4/2 141/4/2 145/4/2
f 144/3/2 140/3/2 145/3/2
f 145/4/2 141/4/2 146/4/2
f 152/2/3 148/2/3 147/2/3
f 153/2/3 148/2/3 152/2/3
f 154/4/3 150/4/3 149/4/3
f 155/5/3 151/5/3 150/5/3
f 155/4/3 150/4/3 154/4/3
f 156/5/3 151/5/3 155/5/3
f 159/4/3 158/4/3 157/4/3
f 160/4/3 158/4/3 159/4/3
f 165/4/3 162/4/3 161/4/3
f 166/4/3 162/4/3 165/4/3
f 167/4/3 164/4/3 163/4/3
f 168/4/3 164/4/3 167/4/3
f 171/4/3 170/4/3 169/4/3
f 172/4/3 170/4/3 171/4/3
f 183/4/3 174/4/3 173/4/3
f 184/1/3 175/1/3 174/1/3
f 184/4/3 174/4/3 183/4/3
f 185/7/3 176/7/3 175/7/3
f 185/1/3 175/1/3 184/1/3
f 186/1/3 177/1/3 176/1/3
f 186/7/3 176/7/3 185/7/3
f 187/7/3 178/7/3 177/7/3
f 187/1/3 177/1/3 186/1/3
f 188/1/3 179/1/3 178/1/3
f 188/7/3 178/7/3 187/7/3
f 189/7/3 180/7/3 179/7/3
f 189/1/3 179/1/3 188/1/3
f 190/1/3 181/1/3 180/1/3
f 190/7/3 180/7/3 189/7/3
f 191/4/3 182/4/3 181/4/3
f 191/1/3 181/1/3 190/1/3
f 192/4/3 182/4/3 191/4/3
f 193/5/4 194/5/4 203/5/4
f 194/6/4 195/6/4 204/6/4
f 203/5/4 194/5/4 204/5/4
f 195/7/4 196/7/4 205/7/4
f 204/6/4 195/6/4 205/6/4
f 196/6/4 197/6/4 206/6/4
f 205/7/4 196/7/4 206/7/4
f 197/7/4 198/7/4 207/7/4
f 206/6/4 197/6/4 207/6/4
f 198/6/4 199/6/4 208/6/4
f 207/7/4 198/7/4 208/7/4
f 199/7/4 200/7/4 209/7/4
f 208/6/4 199/6/4 209/6/4
f 200/6/4 201/6/4 210/6/4
f 209/7/4 200/7/4 210/7/4
f 201/5/4 202/5/4 211/5/4
f 210/6/4 201/6/4 211/6/4
f 211/5/4 202/5/4 212/5/4
f 213/3/4 214/3/4 225/3/4
f 214/5/4 215/5/4 226/5/4
f 225/3/4 214/3/4 226/3/4
f 215/6/4 216/6/4 227/6/4
f 226/5/4 215/5/4 227/5/4
f 216/7/4 217/7/4 228/7/4
f 227/6/4 216/6/4 228/6/4
f 217/6/4 218/6/4 229/6/4
f 228/7/4 217/7/4 229/7/4
f 218/7/4 219/7/4 230/7/4
f 229/6/4 218/6/4 230/6/4
f 219/6/4 220/6/4 231/6/4
f 230/7/4 219/7/4 231/7/4
f 220/7/4 221/7/4 232/7/4
f 231/6/4 220/6/4 232/6/4
f 221/6/4 222/6/4 233/6/4
f 232/7/4 221/7/4 233/7/4
f 222/5/4 223/5/4 234/5/4
f 233/6/4 222/6/4 234/6/4
f 223/3/4 224/3/4 235/3/4
f 234/5/4 223/5/4 235/5/4
f 235/3/4 224/3/4 236/3/4
f 225/4/4 226/4/4 237/4/4
f 237/4/4 226/4/4 238/4/4
f 235/4/4 236/4/4 239/4/4
f 239/4/4 236/4/4 240/4/4
f 243/2/5 242/2/5 241/2/5
f 244/2/5 242/2/5 243/2/5
f 245/4/5 244/4/5 243/4/5
f 246/4/5 244/4/5 245/4/5
f 247/3/5 246/3/5 245/3/5
f 248/3/5 246/3/5 247/3/5
f 249/3/5 247/3/5 245/3/5
f 250/4/5 248/4/5 247/4/5
f 250/3/5 247/3/5 249/3/5
f 251/4/5 248/4/5 250/4/5
f 254/4/5 253/4/5 252/4/5
f 255/4/5 253/4/5 254/4/5
f 258/4/5 257/4/5 256/4/5
f 259/4/5 257/4/5 258/4/5
f 262/4/5 261/4/5 260/4/5
f 263/4/5 261/4/5 262/4/5
f 266/4/5 265/4/5 264/4/5
f 267/4/5 265/4/5 266/4/5
f 268/2/6 269/2/6 270/2/6
f 270/2/6 269/2/6 271/2/6
f 272/4/6 273/4/6 274/4/6
f 274/4/6 273/4/6 275/4/6
f 276/4/6 277/4/6 278/4/6
f 278/4/6 277/4/6 279/4/6
f 280/4/6 281/4/6 282/4/6
f 282/4/6 281/4/6 283/4/6
f 284/5/6 285/5/6 286/5/6
f 286/5/6 285/5/6 287/5/6
f 286/4/6 287/4/6 288/4/6
f 288/4/6 287/4/6 289/4/6
f 288/3/6 289/3/6 290/3/6
f 290/3/6 289/3/6 291/3/6
f 288/3/6 290/3/6 292/3/6
f 290/4/6 291/4/6 293/4/6
f 292/3/6 290/3/6 293/3/6
f 293/4/6 291/4/6 294/4/6
