# MagicaVoxel @ Ephtracy

# group
g Vin

# material
mtllib Vin.mtl
usemtl palette

# normals
vn -1 0 0
vn 1 0 0
vn 0 0 1
vn 0 0 -1
vn 0 -1 0
vn 0 1 0

# texcoords
vt 0.650391 0.5
vt 0.833984 0.5
vt 0.845703 0.5
vt 0.912109 0.5
vt 0.970703 0.5
vt 0.990234 0.5

# verts
v -3 0 3
v -3 0 -0
v -3 3 3
v -3 3 -0
v -3 11 3
v -3 11 -0
v -3 14 3
v -3 14 -0
v -2 0 4
v -2 0 3
v -2 0 -0
v -2 0 -1
v -2 3 4
v -2 3 3
v -2 3 -0
v -2 3 -1
v -2 11 4
v -2 11 3
v -2 11 -0
v -2 11 -1
v -2 14 4
v -2 14 3
v -2 14 -0
v -2 14 -1
v -2 15 3
v -2 15 -0
v -1 0 5
v -1 0 4
v -1 0 -1
v -1 0 -2
v -1 3 5
v -1 3 4
v -1 3 -1
v -1 3 -2
v -1 11 5
v -1 11 4
v -1 11 -1
v -1 11 -2
v -1 14 5
v -1 14 4
v -1 14 3
v -1 14 -0
v -1 14 -1
v -1 14 -2
v -1 15 4
v -1 15 3
v -1 15 -0
v -1 15 -1
v -1 17 3
v -1 17 -0
v -1 20 3
v -1 20 -0
v 1 15 2
v 1 15 1
v 1 17 2
v 1 17 1
v 1 18 2
v 1 18 1
v 0 15 2
v 0 15 1
v 0 17 2
v 0 17 1
v 0 18 2
v 0 18 1
v 2 0 5
v 2 0 4
v 2 0 -1
v 2 0 -2
v 2 3 5
v 2 3 4
v 2 3 -1
v 2 3 -2
v 2 11 5
v 2 11 4
v 2 11 -1
v 2 11 -2
v 2 14 5
v 2 14 4
v 2 14 3
v 2 14 -0
v 2 14 -1
v 2 14 -2
v 2 15 4
v 2 15 3
v 2 15 -0
v 2 15 -1
v 2 17 3
v 2 17 -0
v 2 20 3
v 2 20 -0
v 3 0 4
v 3 0 3
v 3 0 -0
v 3 0 -1
v 3 3 4
v 3 3 3
v 3 3 -0
v 3 3 -1
v 3 11 4
v 3 11 3
v 3 11 -0
v 3 11 -1
v 3 14 4
v 3 14 3
v 3 14 -0
v 3 14 -1
v 3 15 3
v 3 15 -0
v 4 0 3
v 4 0 -0
v 4 3 3
v 4 3 -0
v 4 11 3
v 4 11 -0
v 4 14 3
v 4 14 -0
v -1 0 5
v -1 3 5
v -1 11 5
v -1 14 5
v 2 0 5
v 2 3 5
v 2 11 5
v 2 14 5
v -2 0 4
v -2 3 4
v -2 11 4
v -2 14 4
v -1 0 4
v -1 3 4
v -1 11 4
v -1 14 4
v -1 15 4
v 2 0 4
v 2 3 4
v 2 11 4
v 2 14 4
v 2 15 4
v 3 0 4
v 3 3 4
v 3 11 4
v 3 14 4
v -3 0 3
v -3 3 3
v -3 11 3
v -3 14 3
v -2 0 3
v -2 3 3
v -2 11 3
v -2 14 3
v -2 15 3
v -1 14 3
v -1 15 3
v -1 17 3
v -1 20 3
v 2 14 3
v 2 15 3
v 2 17 3
v 2 20 3
v 3 0 3
v 3 3 3
v 3 11 3
v 3 14 3
v 3 15 3
v 4 0 3
v 4 3 3
v 4 11 3
v 4 14 3
v 0 15 1
v 0 17 1
v 0 18 1
v 1 15 1
v 1 17 1
v 1 18 1
v 0 15 2
v 0 17 2
v 0 18 2
v 1 15 2
v 1 17 2
v 1 18 2
v -3 0 -0
v -3 3 -0
v -3 11 -0
v -3 14 -0
v -2 0 -0
v -2 3 -0
v -2 11 -0
v -2 14 -0
v -2 15 -0
v -1 14 -0
v -1 15 -0
v -1 17 -0
v -1 20 -0
v 2 14 -0
v 2 15 -0
v 2 17 -0
v 2 20 -0
v 3 0 -0
v 3 3 -0
v 3 11 -0
v 3 14 -0
v 3 15 -0
v 4 0 -0
v 4 3 -0
v 4 11 -0
v 4 14 -0
v -2 0 -1
v -2 3 -1
v -2 11 -1
v -2 14 -1
v -1 0 -1
v -1 3 -1
v -1 11 -1
v -1 14 -1
v -1 15 -1
v 2 0 -1
v 2 3 -1
v 2 11 -1
v 2 14 -1
v 2 15 -1
v 3 0 -1
v 3 3 -1
v 3 11 -1
v 3 14 -1
v -1 0 -2
v -1 3 -2
v -1 11 -2
v -1 14 -2
v 2 0 -2
v 2 3 -2
v 2 11 -2
v 2 14 -2
v -1 0 5
v 2 0 5
v -2 0 4
v -1 0 4
v 2 0 4
v 3 0 4
v -3 0 3
v -2 0 3
v 3 0 3
v 4 0 3
v -3 0 -0
v -2 0 -0
v 3 0 -0
v 4 0 -0
v -2 0 -1
v -1 0 -1
v 2 0 -1
v 3 0 -1
v -1 0 -2
v 2 0 -2
v 0 18 2
v 1 18 2
v 0 18 1
v 1 18 1
v -1 14 5
v 2 14 5
v -2 14 4
v -1 14 4
v 2 14 4
v 3 14 4
v -3 14 3
v -2 14 3
v -1 14 3
v 2 14 3
v 3 14 3
v 4 14 3
v -3 14 -0
v -2 14 -0
v -1 14 -0
v 2 14 -0
v 3 14 -0
v 4 14 -0
v -2 14 -1
v -1 14 -1
v 2 14 -1
v 3 14 -1
v -1 14 -2
v 2 14 -2
v -1 15 4
v 2 15 4
v -2 15 3
v -1 15 3
v 2 15 3
v 3 15 3
v 0 15 2
v 1 15 2
v 0 15 1
v 1 15 1
v -2 15 -0
v -1 15 -0
v 2 15 -0
v 3 15 -0
v -1 15 -1
v 2 15 -1
v -1 20 3
v 2 20 3
v -1 20 -0
v 2 20 -0

# faces
f 3/5/1 2/5/1 1/5/1
f 4/5/1 2/5/1 3/5/1
f 5/2/1 4/2/1 3/2/1
f 6/2/1 4/2/1 5/2/1
f 7/5/1 6/5/1 5/5/1
f 8/5/1 6/5/1 7/5/1
f 13/5/1 10/5/1 9/5/1
f 14/5/1 10/5/1 13/5/1
f 15/5/1 12/5/1 11/5/1
f 16/5/1 12/5/1 15/5/1
f 17/2/1 14/2/1 13/2/1
f 18/2/1 14/2/1 17/2/1
f 19/2/1 16/2/1 15/2/1
f 20/2/1 16/2/1 19/2/1
f 21/5/1 18/5/1 17/5/1
f 22/5/1 18/5/1 21/5/1
f 23/5/1 20/5/1 19/5/1
f 24/5/1 20/5/1 23/5/1
f 25/5/1 23/5/1 22/5/1
f 26/5/1 23/5/1 25/5/1
f 31/5/1 28/5/1 27/5/1
f 32/5/1 28/5/1 31/5/1
f 33/5/1 30/5/1 29/5/1
f 34/5/1 30/5/1 33/5/1
f 35/2/1 32/2/1 31/2/1
f 36/2/1 32/2/1 35/2/1
f 37/2/1 34/2/1 33/2/1
f 38/2/1 34/2/1 37/2/1
f 39/5/1 36/5/1 35/5/1
f 40/5/1 36/5/1 39/5/1
f 43/5/1 38/5/1 37/5/1
f 44/5/1 38/5/1 43/5/1
f 45/5/1 41/5/1 40/5/1
f 46/5/1 41/5/1 45/5/1
f 47/5/1 43/5/1 42/5/1
f 48/5/1 43/5/1 47/5/1
f 49/5/1 47/5/1 46/5/1
f 50/5/1 47/5/1 49/5/1
f 51/3/1 50/3/1 49/3/1
f 52/3/1 50/3/1 51/3/1
f 55/5/1 54/5/1 53/5/1
f 56/5/1 54/5/1 55/5/1
f 57/3/1 56/3/1 55/3/1
f 58/3/1 56/3/1 57/3/1
f 59/5/2 60/5/2 61/5/2
f 61/5/2 60/5/2 62/5/2
f 61/3/2 62/3/2 63/3/2
f 63/3/2 62/3/2 64/3/2
f 65/5/2 66/5/2 69/5/2
f 69/5/2 66/5/2 70/5/2
f 67/5/2 68/5/2 71/5/2
f 71/5/2 68/5/2 72/5/2
f 69/2/2 70/2/2 73/2/2
f 73/2/2 70/2/2 74/2/2
f 71/2/2 72/2/2 75/2/2
f 75/2/2 72/2/2 76/2/2
f 73/5/2 74/5/2 77/5/2
f 77/5/2 74/5/2 78/5/2
f 75/5/2 76/5/2 81/5/2
f 81/5/2 76/5/2 82/5/2
f 78/5/2 79/5/2 83/5/2
f 83/5/2 79/5/2 84/5/2
f 80/5/2 81/5/2 85/5/2
f 85/5/2 81/5/2 86/5/2
f 84/5/2 85/5/2 87/5/2
f 87/5/2 85/5/2 88/5/2
f 87/3/2 88/3/2 89/3/2
f 89/3/2 88/3/2 90/3/2
f 91/5/2 92/5/2 95/5/2
f 95/5/2 92/5/2 96/5/2
f 93/5/2 94/5/2 97/5/2
f 97/5/2 94/5/2 98/5/2
f 95/2/2 96/2/2 99/2/2
f 99/2/2 96/2/2 100/2/2
f 97/2/2 98/2/2 101/2/2
f 101/2/2 98/2/2 102/2/2
f 99/5/2 100/5/2 103/5/2
f 103/5/2 100/5/2 104/5/2
f 101/5/2 102/5/2 105/5/2
f 105/5/2 102/5/2 106/5/2
f 104/5/2 105/5/2 107/5/2
f 107/5/2 105/5/2 108/5/2
f 109/5/2 110/5/2 111/5/2
f 111/5/2 110/5/2 112/5/2
f 111/2/2 112/2/2 113/2/2
f 113/2/2 112/2/2 114/2/2
f 113/5/2 114/5/2 115/5/2
f 115/5/2 114/5/2 116/5/2
f 121/5/3 118/5/3 117/5/3
f 122/2/3 119/2/3 118/2/3
f 122/5/3 118/5/3 121/5/3
f 123/5/3 120/5/3 119/5/3
f 123/2/3 119/2/3 122/2/3
f 124/5/3 120/5/3 123/5/3
f 129/5/3 126/5/3 125/5/3
f 130/2/3 127/2/3 126/2/3
f 130/5/3 126/5/3 129/5/3
f 131/5/3 128/5/3 127/5/3
f 131/2/3 127/2/3 130/2/3
f 132/5/3 128/5/3 131/5/3
f 137/5/3 133/5/3 132/5/3
f 138/5/3 133/5/3 137/5/3
f 139/5/3 135/5/3 134/5/3
f 140/2/3 136/2/3 135/2/3
f 140/5/3 135/5/3 139/5/3
f 141/5/3 137/5/3 136/5/3
f 141/2/3 136/2/3 140/2/3
f 142/5/3 137/5/3 141/5/3
f 147/5/3 144/5/3 143/5/3
f 148/2/3 145/2/3 144/2/3
f 148/5/3 144/5/3 147/5/3
f 149/5/3 146/5/3 145/5/3
f 149/2/3 145/2/3 148/2/3
f 150/5/3 146/5/3 149/5/3
f 152/5/3 151/5/3 150/5/3
f 153/5/3 151/5/3 152/5/3
f 157/5/3 154/5/3 153/5/3
f 158/3/3 155/3/3 154/3/3
f 158/5/3 154/5/3 157/5/3
f 159/3/3 155/3/3 158/3/3
f 163/5/3 157/5/3 156/5/3
f 164/5/3 157/5/3 163/5/3
f 165/5/3 161/5/3 160/5/3
f 166/2/3 162/2/3 161/2/3
f 166/5/3 161/5/3 165/5/3
f 167/5/3 163/5/3 162/5/3
f 167/2/3 162/2/3 166/2/3
f 168/5/3 163/5/3 167/5/3
f 172/5/3 170/5/3 169/5/3
f 173/3/3 171/3/3 170/3/3
f 173/5/3 170/5/3 172/5/3
f 174/3/3 171/3/3 173/3/3
f 175/5/4 176/5/4 178/5/4
f 176/3/4 177/3/4 179/3/4
f 178/5/4 176/5/4 179/5/4
f 179/3/4 177/3/4 180/3/4
f 181/5/4 182/5/4 185/5/4
f 182/2/4 183/2/4 186/2/4
f 185/5/4 182/5/4 186/5/4
f 183/5/4 184/5/4 187/5/4
f 186/2/4 183/2/4 187/2/4
f 187/5/4 184/5/4 188/5/4
f 188/5/4 189/5/4 190/5/4
f 190/5/4 189/5/4 191/5/4
f 191/5/4 192/5/4 195/5/4
f 192/3/4 193/3/4 196/3/4
f 195/5/4 192/5/4 196/5/4
f 196/3/4 193/3/4 197/3/4
f 194/5/4 195/5/4 201/5/4
f 201/5/4 195/5/4 202/5/4
f 198/5/4 199/5/4 203/5/4
f 199/2/4 200/2/4 204/2/4
f 203/5/4 199/5/4 204/5/4
f 200/5/4 201/5/4 205/5/4
f 204/2/4 200/2/4 205/2/4
f 205/5/4 201/5/4 206/5/4
f 207/5/4 208/5/4 211/5/4
f 208/2/4 209/2/4 212/2/4
f 211/5/4 208/5/4 212/5/4
f 209/5/4 210/5/4 213/5/4
f 212/2/4 209/2/4 213/2/4
f 213/5/4 210/5/4 214/5/4
f 214/5/4 215/5/4 219/5/4
f 219/5/4 215/5/4 220/5/4
f 216/5/4 217/5/4 221/5/4
f 217/2/4 218/2/4 222/2/4
f 221/5/4 217/5/4 222/5/4
f 218/5/4 219/5/4 223/5/4
f 222/2/4 218/2/4 223/2/4
f 223/5/4 219/5/4 224/5/4
f 225/5/4 226/5/4 229/5/4
f 226/2/4 227/2/4 230/2/4
f 229/5/4 226/5/4 230/5/4
f 227/5/4 228/5/4 231/5/4
f 230/2/4 227/2/4 231/2/4
f 231/5/4 228/5/4 232/5/4
f 236/5/5 234/5/5 233/5/5
f 237/5/5 234/5/5 236/5/5
f 240/5/5 236/5/5 235/5/5
f 240/5/5 238/5/5 237/5/5
f 240/5/5 237/5/5 236/5/5
f 241/5/5 238/5/5 240/5/5
f 243/5/5 240/5/5 239/5/5
f 243/5/5 242/5/5 241/5/5
f 243/5/5 241/5/5 240/5/5
f 244/5/5 242/5/5 243/5/5
f 245/5/5 242/5/5 244/5/5
f 246/5/5 242/5/5 245/5/5
f 247/5/5 245/5/5 244/5/5
f 248/5/5 245/5/5 247/5/5
f 249/5/5 245/5/5 248/5/5
f 250/5/5 245/5/5 249/5/5
f 251/5/5 249/5/5 248/5/5
f 252/5/5 249/5/5 251/5/5
f 255/3/5 254/3/5 253/3/5
f 256/3/5 254/3/5 255/3/5
f 257/5/6 258/5/6 260/5/6
f 260/5/6 258/5/6 261/5/6
f 259/5/6 260/5/6 264/5/6
f 264/5/6 260/5/6 265/5/6
f 261/5/6 262/5/6 266/5/6
f 266/5/6 262/5/6 267/5/6
f 263/5/6 264/5/6 269/5/6
f 269/5/6 264/5/6 270/5/6
f 267/5/6 268/5/6 273/5/6
f 273/5/6 268/5/6 274/5/6
f 270/5/6 271/5/6 275/5/6
f 275/5/6 271/5/6 276/5/6
f 272/5/6 273/5/6 277/5/6
f 277/5/6 273/5/6 278/5/6
f 276/5/6 277/5/6 279/5/6
f 279/5/6 277/5/6 280/5/6
f 281/5/6 282/5/6 284/5/6
f 284/5/6 282/5/6 285/5/6
f 287/6/6 288/6/6 289/6/6
f 289/6/6 288/6/6 290/6/6
f 283/5/6 284/5/6 291/5/6
f 291/5/6 284/5/6 292/5/6
f 285/5/6 286/5/6 293/5/6
f 293/5/6 286/5/6 294/5/6
f 292/5/6 293/5/6 295/5/6
f 295/5/6 293/5/6 296/5/6
f 297/3/6 298/3/6 299/3/6
f 299/3/6 298/3/6 300/3/6
