# MagicaVoxel @ Ephtracy

# group
g Livre 2

# material
mtllib Livre 2.mtl
usemtl palette

# normals
vn -1 0 0
vn 1 0 0
vn 0 0 1
vn 0 0 -1
vn 0 -1 0
vn 0 1 0

# texcoords
vt 0.771484 0.5
vt 0.833984 0.5
vt 0.970703 0.5

# verts
v 5 0 -2
v 5 0 -7
v 5 5 -2
v 5 5 -3
v 5 6 -3
v 5 6 -7
v 5 7 -2
v 5 7 -7
v 5 8 -2
v 5 8 -7
v 8 0 -2
v 8 0 -7
v 8 5 -2
v 8 5 -3
v 8 6 -3
v 8 6 -7
v 8 7 -2
v 8 7 -7
v 8 8 -2
v 8 8 -7
v 5 0 -2
v 5 5 -2
v 5 7 -2
v 5 8 -2
v 8 0 -2
v 8 5 -2
v 8 7 -2
v 8 8 -2
v 5 0 -7
v 5 6 -7
v 5 7 -7
v 5 8 -7
v 6 0 -7
v 6 6 -7
v 6 7 -7
v 6 8 -7
v 7 0 -7
v 7 6 -7
v 7 7 -7
v 7 8 -7
v 8 0 -7
v 8 6 -7
v 8 7 -7
v 8 8 -7
v 5 0 -2
v 8 0 -2
v 6 0 -3
v 7 0 -3
v 5 0 -7
v 6 0 -7
v 7 0 -7
v 8 0 -7
v 5 8 -2
v 8 8 -2
v 6 8 -3
v 7 8 -3
v 5 8 -7
v 6 8 -7
v 7 8 -7
v 8 8 -7

# faces
f 3/3/1 2/3/1 1/3/1
f 4/3/1 2/3/1 3/3/1
f 5/2/1 4/2/1 3/2/1
f 5/3/1 2/3/1 4/3/1
f 6/3/1 2/3/1 5/3/1
f 7/2/1 5/2/1 3/2/1
f 7/2/1 6/2/1 5/2/1
f 8/2/1 6/2/1 7/2/1
f 9/3/1 8/3/1 7/3/1
f 10/3/1 8/3/1 9/3/1
f 11/3/2 12/3/2 13/3/2
f 13/3/2 12/3/2 14/3/2
f 13/2/2 14/2/2 15/2/2
f 14/3/2 12/3/2 15/3/2
f 15/3/2 12/3/2 16/3/2
f 13/2/2 15/2/2 17/2/2
f 15/2/2 16/2/2 17/2/2
f 17/2/2 16/2/2 18/2/2
f 17/3/2 18/3/2 19/3/2
f 19/3/2 18/3/2 20/3/2
f 25/3/3 22/3/3 21/3/3
f 26/2/3 23/2/3 22/2/3
f 26/3/3 22/3/3 25/3/3
f 27/3/3 24/3/3 23/3/3
f 27/2/3 23/2/3 26/2/3
f 28/3/3 24/3/3 27/3/3
f 29/3/4 30/3/4 33/3/4
f 30/2/4 31/2/4 34/2/4
f 33/3/4 30/3/4 34/3/4
f 31/3/4 32/3/4 35/3/4
f 34/2/4 31/2/4 35/2/4
f 35/3/4 32/3/4 36/3/4
f 33/1/4 34/1/4 37/1/4
f 34/1/4 35/1/4 37/1/4
f 35/1/4 36/1/4 37/1/4
f 37/1/4 36/1/4 38/1/4
f 38/1/4 36/1/4 39/1/4
f 39/1/4 36/1/4 40/1/4
f 37/3/4 38/3/4 41/3/4
f 38/2/4 39/2/4 42/2/4
f 41/3/4 38/3/4 42/3/4
f 39/3/4 40/3/4 43/3/4
f 42/2/4 39/2/4 43/2/4
f 43/3/4 40/3/4 44/3/4
f 47/3/5 46/3/5 45/3/5
f 48/3/5 46/3/5 47/3/5
f 49/3/5 47/3/5 45/3/5
f 50/1/5 48/1/5 47/1/5
f 50/3/5 47/3/5 49/3/5
f 51/3/5 46/3/5 48/3/5
f 51/1/5 48/1/5 50/1/5
f 52/3/5 46/3/5 51/3/5
f 53/3/6 54/3/6 55/3/6
f 55/3/6 54/3/6 56/3/6
f 53/3/6 55/3/6 57/3/6
f 55/1/6 56/1/6 58/1/6
f 57/3/6 55/3/6 58/3/6
f 56/3/6 54/3/6 59/3/6
f 58/1/6 56/1/6 59/1/6
f 59/3/6 54/3/6 60/3/6
