# MagicaVoxel @ Ephtracy

# group
g Boite

# material
mtllib Boite.mtl
usemtl palette

# normals
vn -1 0 0
vn 1 0 0
vn 0 0 1
vn 0 0 -1
vn 0 -1 0
vn 0 1 0

# texcoords
vt 0.755859 0.5
vt 0.763672 0.5

# verts
v -12 7 4
v -12 7 -16
v -12 10 4
v -12 10 -16
v -11 0 3
v -11 0 -15
v -11 7 3
v -11 7 -15
v -4 5 3
v -4 5 2
v -4 5 -14
v -4 5 -15
v -4 6 3
v -4 6 2
v -4 6 -14
v -4 6 -15
v -3 7 3
v -3 7 2
v -3 7 -14
v -3 7 -15
v -3 9 3
v -3 9 2
v -3 9 -14
v -3 9 -15
v -1 1 2
v -1 1 -14
v -1 7 2
v -1 7 -14
v -1 9 2
v -1 9 -14
v -10 1 2
v -10 1 -14
v -10 7 2
v -10 7 -14
v -10 9 2
v -10 9 -14
v -8 7 3
v -8 7 2
v -8 7 -14
v -8 7 -15
v -8 9 3
v -8 9 2
v -8 9 -14
v -8 9 -15
v -7 5 3
v -7 5 2
v -7 5 -14
v -7 5 -15
v -7 6 3
v -7 6 2
v -7 6 -14
v -7 6 -15
v 0 0 3
v 0 0 -15
v 0 7 3
v 0 7 -15
v 1 7 4
v 1 7 -16
v 1 10 4
v 1 10 -16
v -12 7 4
v -12 10 4
v 1 7 4
v 1 10 4
v -11 0 3
v -11 7 3
v -7 3 3
v -7 4 3
v -7 5 3
v -7 6 3
v -4 3 3
v -4 4 3
v -4 5 3
v -4 6 3
v 0 0 3
v 0 7 3
v -10 1 -14
v -10 7 -14
v -10 9 -14
v -8 7 -14
v -8 9 -14
v -7 3 -14
v -7 4 -14
v -7 5 -14
v -7 6 -14
v -4 3 -14
v -4 4 -14
v -4 5 -14
v -4 6 -14
v -3 7 -14
v -3 9 -14
v -1 1 -14
v -1 7 -14
v -1 9 -14
v -8 7 -15
v -8 9 -15
v -3 7 -15
v -3 9 -15
v -8 7 3
v -8 9 3
v -3 7 3
v -3 9 3
v -10 1 2
v -10 7 2
v -10 9 2
v -8 7 2
v -8 9 2
v -7 3 2
v -7 4 2
v -7 5 2
v -7 6 2
v -4 3 2
v -4 4 2
v -4 5 2
v -4 6 2
v -3 7 2
v -3 9 2
v -1 1 2
v -1 7 2
v -1 9 2
v -11 0 -15
v -11 7 -15
v -7 3 -15
v -7 4 -15
v -7 5 -15
v -7 6 -15
v -4 3 -15
v -4 4 -15
v -4 5 -15
v -4 6 -15
v 0 0 -15
v 0 7 -15
v -12 7 -16
v -12 10 -16
v 1 7 -16
v 1 10 -16
v -11 0 3
v 0 0 3
v -11 0 -15
v 0 0 -15
v -7 6 3
v -4 6 3
v -7 6 2
v -4 6 2
v -7 6 -14
v -4 6 -14
v -7 6 -15
v -4 6 -15
v -12 7 4
v 1 7 4
v -11 7 3
v 0 7 3
v -11 7 -15
v 0 7 -15
v -12 7 -16
v 1 7 -16
v -8 9 3
v -3 9 3
v -10 9 2
v -8 9 2
v -3 9 2
v -1 9 2
v -10 9 -14
v -8 9 -14
v -3 9 -14
v -1 9 -14
v -8 9 -15
v -3 9 -15
v -10 1 2
v -1 1 2
v -10 1 -14
v -1 1 -14
v -7 5 3
v -4 5 3
v -7 5 2
v -4 5 2
v -7 5 -14
v -4 5 -14
v -7 5 -15
v -4 5 -15
v -8 7 3
v -3 7 3
v -8 7 2
v -3 7 2
v -8 7 -14
v -3 7 -14
v -8 7 -15
v -3 7 -15
v -12 10 4
v 1 10 4
v -12 10 -16
v 1 10 -16

# faces
f 3/2/1 2/2/1 1/2/1
f 4/2/1 2/2/1 3/2/1
f 7/1/1 6/1/1 5/1/1
f 8/1/1 6/1/1 7/1/1
f 13/1/1 10/1/1 9/1/1
f 14/1/1 10/1/1 13/1/1
f 15/1/1 12/1/1 11/1/1
f 16/1/1 12/1/1 15/1/1
f 21/2/1 18/2/1 17/2/1
f 22/2/1 18/2/1 21/2/1
f 23/2/1 20/2/1 19/2/1
f 24/2/1 20/2/1 23/2/1
f 27/1/1 26/1/1 25/1/1
f 28/1/1 26/1/1 27/1/1
f 29/2/1 28/2/1 27/2/1
f 30/2/1 28/2/1 29/2/1
f 31/1/2 32/1/2 33/1/2
f 33/1/2 32/1/2 34/1/2
f 33/2/2 34/2/2 35/2/2
f 35/2/2 34/2/2 36/2/2
f 37/2/2 38/2/2 41/2/2
f 41/2/2 38/2/2 42/2/2
f 39/2/2 40/2/2 43/2/2
f 43/2/2 40/2/2 44/2/2
f 45/1/2 46/1/2 49/1/2
f 49/1/2 46/1/2 50/1/2
f 47/1/2 48/1/2 51/1/2
f 51/1/2 48/1/2 52/1/2
f 53/1/2 54/1/2 55/1/2
f 55/1/2 54/1/2 56/1/2
f 57/2/2 58/2/2 59/2/2
f 59/2/2 58/2/2 60/2/2
f 63/2/3 62/2/3 61/2/3
f 64/2/3 62/2/3 63/2/3
f 67/1/3 66/1/3 65/1/3
f 68/1/3 66/1/3 67/1/3
f 69/1/3 66/1/3 68/1/3
f 70/1/3 66/1/3 69/1/3
f 71/1/3 67/1/3 65/1/3
f 71/2/3 68/2/3 67/2/3
f 72/1/3 69/1/3 68/1/3
f 72/2/3 68/2/3 71/2/3
f 73/1/3 69/1/3 72/1/3
f 74/1/3 66/1/3 70/1/3
f 75/1/3 73/1/3 72/1/3
f 75/1/3 74/1/3 73/1/3
f 75/1/3 71/1/3 65/1/3
f 75/1/3 72/1/3 71/1/3
f 76/1/3 66/1/3 74/1/3
f 76/1/3 74/1/3 75/1/3
f 80/1/3 78/1/3 77/1/3
f 80/2/3 79/2/3 78/2/3
f 81/2/3 79/2/3 80/2/3
f 82/1/3 80/1/3 77/1/3
f 83/1/3 80/1/3 82/1/3
f 84/1/3 80/1/3 83/1/3
f 85/1/3 80/1/3 84/1/3
f 86/1/3 82/1/3 77/1/3
f 86/2/3 83/2/3 82/2/3
f 87/1/3 84/1/3 83/1/3
f 87/2/3 83/2/3 86/2/3
f 88/1/3 84/1/3 87/1/3
f 89/1/3 80/1/3 85/1/3
f 90/1/3 88/1/3 87/1/3
f 90/1/3 89/1/3 88/1/3
f 90/1/3 80/1/3 89/1/3
f 90/1/3 87/1/3 86/1/3
f 92/1/3 86/1/3 77/1/3
f 92/1/3 90/1/3 86/1/3
f 93/2/3 91/2/3 90/2/3
f 93/1/3 90/1/3 92/1/3
f 94/2/3 91/2/3 93/2/3
f 97/2/3 96/2/3 95/2/3
f 98/2/3 96/2/3 97/2/3
f 99/2/4 100/2/4 101/2/4
f 101/2/4 100/2/4 102/2/4
f 103/1/4 104/1/4 106/1/4
f 104/2/4 105/2/4 106/2/4
f 106/2/4 105/2/4 107/2/4
f 103/1/4 106/1/4 108/1/4
f 108/1/4 106/1/4 109/1/4
f 109/1/4 106/1/4 110/1/4
f 110/1/4 106/1/4 111/1/4
f 103/1/4 108/1/4 112/1/4
f 108/2/4 109/2/4 112/2/4
f 109/1/4 110/1/4 113/1/4
f 112/2/4 109/2/4 113/2/4
f 113/1/4 110/1/4 114/1/4
f 111/1/4 106/1/4 115/1/4
f 113/1/4 114/1/4 116/1/4
f 114/1/4 115/1/4 116/1/4
f 115/1/4 106/1/4 116/1/4
f 112/1/4 113/1/4 116/1/4
f 103/1/4 112/1/4 118/1/4
f 112/1/4 116/1/4 118/1/4
f 116/2/4 117/2/4 119/2/4
f 118/1/4 116/1/4 119/1/4
f 119/2/4 117/2/4 120/2/4
f 121/1/4 122/1/4 123/1/4
f 123/1/4 122/1/4 124/1/4
f 124/1/4 122/1/4 125/1/4
f 125/1/4 122/1/4 126/1/4
f 121/1/4 123/1/4 127/1/4
f 123/2/4 124/2/4 127/2/4
f 124/1/4 125/1/4 128/1/4
f 127/2/4 124/2/4 128/2/4
f 128/1/4 125/1/4 129/1/4
f 126/1/4 122/1/4 130/1/4
f 128/1/4 129/1/4 131/1/4
f 129/1/4 130/1/4 131/1/4
f 121/1/4 127/1/4 131/1/4
f 127/1/4 128/1/4 131/1/4
f 130/1/4 122/1/4 132/1/4
f 131/1/4 130/1/4 132/1/4
f 133/2/4 134/2/4 135/2/4
f 135/2/4 134/2/4 136/2/4
f 139/1/5 138/1/5 137/1/5
f 140/1/5 138/1/5 139/1/5
f 143/1/5 142/1/5 141/1/5
f 144/1/5 142/1/5 143/1/5
f 147/1/5 146/1/5 145/1/5
f 148/1/5 146/1/5 147/1/5
f 151/2/5 150/2/5 149/2/5
f 152/2/5 150/2/5 151/2/5
f 153/2/5 151/2/5 149/2/5
f 154/2/5 150/2/5 152/2/5
f 155/2/5 153/2/5 149/2/5
f 155/2/5 154/2/5 153/2/5
f 156/2/5 150/2/5 154/2/5
f 156/2/5 154/2/5 155/2/5
f 160/2/5 158/2/5 157/2/5
f 161/2/5 158/2/5 160/2/5
f 163/2/5 160/2/5 159/2/5
f 163/2/5 162/2/5 161/2/5
f 163/2/5 161/2/5 160/2/5
f 164/2/5 162/2/5 163/2/5
f 165/2/5 162/2/5 164/2/5
f 166/2/5 162/2/5 165/2/5
f 167/2/5 165/2/5 164/2/5
f 168/2/5 165/2/5 167/2/5
f 169/1/6 170/1/6 171/1/6
f 171/1/6 170/1/6 172/1/6
f 173/1/6 174/1/6 175/1/6
f 175/1/6 174/1/6 176/1/6
f 177/1/6 178/1/6 179/1/6
f 179/1/6 178/1/6 180/1/6
f 181/1/6 182/1/6 183/1/6
f 183/1/6 182/1/6 184/1/6
f 185/1/6 186/1/6 187/1/6
f 187/1/6 186/1/6 188/1/6
f 189/2/6 190/2/6 191/2/6
f 191/2/6 190/2/6 192/2/6
